<?xml version="1.0" encoding="UTF-8"?>
<svg version="1.1" xmlns="http://www.w3.org/2000/svg" width="436" height="436">
<path d="M0 0 C0.66 0.33 1.32 0.66 2 1 C-1.01657635 18.29503774 -9.43135499 34.60803138 -24 45 C-24.66 45 -25.32 45 -26 45 C-23.84213362 48.87023777 -21.33415833 51.9620463 -18.375 55.25 C-3.76254264 72.35404448 3.05845376 94.52348255 1.77734375 116.88671875 C-0.55318192 142.95526728 -12.85069814 165.08998639 -32.6875 182 C-37.22143342 185.76158934 -41.87725455 189.08706631 -47 192 C-45.64622882 196.00490642 -43.91461478 198.46047316 -41 201.5 C-37.06772006 205.74535956 -33.5017532 210.14885074 -30.01147461 214.76196289 C-26.61912946 219.23013467 -23.11381767 223.59485611 -19.5625 227.9375 C-15.405958 233.02292924 -11.2933612 238.13656865 -7.25 243.3125 C-3.33677859 248.3216191 0.65271931 253.25828215 4.6953125 258.1640625 C7.29904554 261.36797807 9.83806148 264.61818569 12.375 267.875 C16.00353278 272.52883597 19.72234167 277.08186296 23.5625 281.5625 C27.65551179 286.34009774 31.55262149 291.22980854 35.3515625 296.24389648 C38.86260377 300.86766124 42.54028785 305.32188754 46.28515625 309.7578125 C48 312 48 312 49 315 C49.66 315 50.32 315 51 315 C52.93188678 317.40204956 54.75858351 319.81687292 56.5625 322.3125 C57.65704861 323.7995078 58.75341077 325.28518236 59.8515625 326.76953125 C60.39071289 327.49865723 60.92986328 328.2277832 61.48535156 328.97900391 C64.07954483 332.44043715 66.82820459 335.76574927 69.58984375 339.09375 C72.58678223 342.70756237 75.54298393 346.35350883 78.5 350 C79.62224444 351.3816334 80.74463754 352.76314607 81.8671875 354.14453125 C83.72700464 356.43323587 85.58642523 358.72225855 87.4453125 361.01171875 C90.5800252 364.85988757 93.72634515 368.69229644 96.9609375 372.45703125 C97.71769775 373.34032104 97.71769775 373.34032104 98.48974609 374.24145508 C99.47556633 375.3893476 100.46531055 376.53388509 101.45947266 377.67456055 C103.55822217 380.11830479 104.97001392 381.91004177 106 385 C102.27115768 387.48589488 100.42387403 387.22831016 95.97192383 387.18286133 C95.25901184 387.17821869 94.54609985 387.17357605 93.81158447 387.16879272 C91.44317068 387.15035587 89.07525831 387.1167713 86.70703125 387.08203125 C85.04246053 387.06344086 83.37788408 387.04535761 81.71330261 387.02775574 C78.20677417 386.98816644 74.70045127 386.94083363 71.1940918 386.88842773 C67.64399116 386.83601467 64.09405543 386.79415243 60.54370117 386.76342773 C10.10779736 386.32622212 10.10779736 386.32622212 -13 379 C-14.2375 378.63003906 -15.475 378.26007813 -16.75 377.87890625 C-25.69867331 375.08244584 -33.74182491 371.41538792 -42 367 C-42.06058594 368.28777344 -42.12117188 369.57554687 -42.18359375 370.90234375 C-42.26798247 372.58074159 -42.3526313 374.25912636 -42.4375 375.9375 C-42.47681641 376.78763672 -42.51613281 377.63777344 -42.55664062 378.51367188 C-42.59853516 379.32255859 -42.64042969 380.13144531 -42.68359375 380.96484375 C-42.72025146 381.7137085 -42.75690918 382.46257324 -42.79467773 383.23413086 C-43 385 -43 385 -44 386 C-45.34015221 386.15582303 -46.68758903 386.25044142 -48.03515625 386.31640625 C-48.76355713 386.35451416 -49.49195801 386.39262207 -50.24243164 386.43188477 C-51.1730542 386.47498779 -52.10367676 386.51809082 -53.0625 386.5625 C-56.011875 386.706875 -58.96125 386.85125 -62 387 C-62.33 393.27 -62.66 399.54 -63 406 C-2.61 406 57.78 406 120 406 C120 412.27 120 418.54 120 425 C119 426 119 426 116.13786501 426.1241985 C114.19274762 426.12362892 114.19274762 426.12362892 112.20833492 426.12304783 C111.12520081 426.1247786 111.12520081 426.1247786 110.0201852 426.12654433 C107.56982577 426.12921788 105.11953038 426.12468281 102.66917419 426.12025452 C100.90702123 426.12069007 99.14486832 426.12156468 97.38271576 426.12284368 C92.51649491 426.12509181 87.65029584 426.12106305 82.78407776 426.11606562 C77.54546426 426.11176583 72.30685208 426.11320721 67.0682373 426.1139679 C57.98402551 426.11449343 48.89982088 426.11134355 39.81561089 426.10573006 C26.6812051 426.09761905 13.54680279 426.09500025 0.41239477 426.09374207 C-20.89491261 426.09155092 -42.20221618 426.08488913 -63.50952148 426.07543945 C-84.21329733 426.06626696 -104.91707214 426.05918533 -125.62084961 426.05493164 C-126.896034 426.05466892 -128.17121839 426.05440619 -129.48504473 426.05413551 C-135.88197251 426.05283052 -142.2789003 426.0515668 -148.6758281 426.05032361 C-201.78388804 426.03994903 -254.89194383 426.02232901 -308 426 C-308.0809313 423.39521117 -308.14045434 420.79293347 -308.1875 418.1875 C-308.22520508 417.08051758 -308.22520508 417.08051758 -308.26367188 415.95117188 C-308.33735538 410.52315365 -308.33735538 410.52315365 -306.71313477 408.00439453 C-303.7010382 406.23843112 -300.31962156 406.74655145 -296.9375 406.875 C-295.30216594 406.90802704 -293.66673569 406.93654882 -292.03125 406.9609375 C-291.19464844 406.97350586 -290.35804688 406.98607422 -289.49609375 406.99902344 C-285.63150955 407.0005354 -281.79212946 406.75765222 -277.9375 406.5 C-269.28421613 405.94193903 -260.66819573 405.9012484 -252 406 C-258.5802126 401.10550479 -265.2797762 396.41998416 -272.0625 391.8125 C-279.60277372 386.68962049 -287.02868647 381.42829191 -294.38891602 376.05004883 C-295.45130493 375.27504028 -295.45130493 375.27504028 -296.53515625 374.484375 C-297.157854 374.02772461 -297.78055176 373.57107422 -298.42211914 373.10058594 C-300.01888419 371.93018595 -300.01888419 371.93018595 -302 371 C-302 370.34 -302 369.68 -302 369 C-302.66 369 -303.32 369 -304 369 C-304.91296912 366.13318874 -305.47073139 363.99522994 -304.14501953 361.19238281 C-302.85548583 359.27006489 -301.49291514 357.44483758 -300.0625 355.625 C-299.58103516 354.98433594 -299.09957031 354.34367187 -298.60351562 353.68359375 C-297.41787629 352.11056731 -296.21096665 350.55361275 -295 349 C-291.22976315 350.34842991 -288.32449997 352.04036684 -285.125 354.4375 C-283.68640625 355.50484375 -283.68640625 355.50484375 -282.21875 356.59375 C-281.44337891 357.17382812 -281.44337891 357.17382812 -280.65234375 357.765625 C-277.65463189 360.00505041 -274.63982404 362.22119483 -271.625 364.4375 C-270.99368164 364.90293213 -270.36236328 365.36836426 -269.71191406 365.84790039 C-264.4976223 369.67619033 -259.18033268 373.33224556 -253.8046875 376.9296875 C-251 379 -251 379 -248.4453125 381.5703125 C-246.05158994 383.94873971 -243.90743484 385.32576285 -241 387 C-238.48545313 388.76458165 -236.02610473 390.60269169 -233.5625 392.4375 C-229.11109518 395.74591622 -224.62545758 398.93587831 -220 402 C-219.39945801 402.52762939 -218.79891602 403.05525879 -218.18017578 403.59887695 C-215.37290203 405.40301403 -213.66107891 405.33083011 -210.33984375 405.2578125 C-209.17332275 405.24298828 -208.00680176 405.22816406 -206.80493164 405.21289062 C-205.5286792 405.18388672 -204.25242676 405.15488281 -202.9375 405.125 C-200.16413503 405.08643423 -197.39072341 405.06175656 -194.6171875 405.0390625 C-193.50021233 405.02851837 -193.50021233 405.02851837 -192.360672 405.01776123 C-182.09146866 404.94429003 -171.82755856 405.23874831 -161.5625 405.5 C-159.61515372 405.54836902 -157.66780673 405.59670947 -155.72045898 405.64501953 C-151.14684496 405.7590414 -146.57346858 405.87970209 -142 406 C-142 399.4 -142 392.8 -142 386 C-147.61 386 -153.22 386 -159 386 C-161.03880879 381.92238242 -161.49738165 379.26861288 -162 374.78515625 C-162.08121094 374.09240097 -162.16242188 373.39964569 -162.24609375 372.68589783 C-162.50453476 370.47885195 -162.75336506 368.27089432 -163 366.0625 C-163.32531784 363.15656028 -163.66000696 360.25191106 -164 357.34765625 C-164.2165625 355.41418335 -164.2165625 355.41418335 -164.4375 353.44165039 C-165.27087428 348.34265851 -166.57705831 345.00729018 -170.3125 341.4375 C-170.93769531 340.83679688 -171.56289062 340.23609375 -172.20703125 339.6171875 C-173.58663494 338.37283908 -175.03150555 337.2005832 -176.5 336.0625 C-179.35565006 333.7065887 -181.58287653 331.0836872 -183.98046875 328.2734375 C-186.22734166 325.74407573 -188.59144327 323.37566293 -191 321 C-194.55417029 317.48329837 -197.93270384 313.90443918 -201.171875 310.09765625 C-202.50039114 308.57326914 -203.87110349 307.08534133 -205.265625 305.62109375 C-231.14805255 278.31431877 -243.40245476 244.38469372 -243.02734375 206.9921875 C-243.01470486 204.51692844 -243.00234336 202.04166796 -242.99023438 199.56640625 C-242.96539762 195.71105362 -242.93733406 191.8557776 -242.90405273 188.00048828 C-242.87375381 184.24771656 -242.85605489 180.49504285 -242.83984375 176.7421875 C-242.82638412 175.59821503 -242.8129245 174.45424255 -242.79905701 173.27560425 C-242.76899061 163.62075098 -244.28887866 155.92309506 -248.4375 147.25 C-257.53601301 127.14280188 -259.02590977 102.48127773 -251.25 81.625 C-246.4320258 69.50377501 -240.18534277 58.92607783 -230.7265625 49.80859375 C-228.76982903 48.17562762 -228.76982903 48.17562762 -229 46 C-230.45649567 44.60658099 -230.45649567 44.60658099 -232.375 43.125 C-244.07409821 33.10609143 -252.85133996 20.24614335 -256 5 C-256 3.68 -256 2.36 -256 1 C-250.87315795 1.61769181 -246.68245697 3.98062084 -242.125 6.25 C-233.91900041 10.2448071 -225.76522808 13.44679962 -217 16 C-216.09939614 16.26946725 -216.09939614 16.26946725 -215.18059826 16.54437828 C-212.45340305 17.11420785 -209.89364065 17.14433048 -207.10652161 17.16494751 C-205.9002713 17.17618149 -204.694021 17.18741547 -203.45121765 17.19898987 C-202.11697443 17.20648943 -200.78273063 17.21388649 -199.44848633 17.22119141 C-198.04019858 17.23241335 -196.63191405 17.24404587 -195.22363281 17.25605774 C-191.39382463 17.28739526 -187.56399885 17.31253025 -183.73413682 17.3362546 C-180.52026243 17.35673566 -177.30641329 17.38026409 -174.09255999 17.40379179 C-166.48385152 17.45945355 -158.87512102 17.51013325 -151.26635742 17.55761719 C-143.47892535 17.60629014 -135.69157723 17.6626334 -127.90422803 17.72303832 C-121.18197089 17.77493114 -114.4596915 17.82213104 -107.73737544 17.86572587 C-103.73982345 17.89167734 -99.74230017 17.91917442 -95.74479103 17.9510994 C-81.17392897 18.0653802 -66.60426323 18.1504858 -52.0378418 17.69677734 C-51.0701653 17.67451395 -50.1024888 17.65225056 -49.10548878 17.62931252 C-32.07355294 16.96183671 -16.3116432 8.89535347 -1.69140625 0.70703125 C-1.13324219 0.47371094 -0.57507813 0.24039062 0 0 Z M-200 38 C-200 38.99 -200 39.98 -200 41 C-196.08632769 42.23883705 -192.16904108 43.46575484 -188.25 44.6875 C-187.06873535 45.05617188 -185.8874707 45.42484375 -184.67041016 45.8046875 C-177.61521102 47.97698379 -170.57145045 49.8680885 -163.375 51.5 C-149.43042905 54.78823333 -137.98998657 60.62578318 -128 71 C-124.71073455 69.56094636 -122.55747727 67.74935279 -120 65.25 C-110.25159196 56.49858824 -98.34460284 53.35146549 -86 50 C-82.7588441 49.10562201 -79.51903149 48.20659026 -76.2800293 47.30444336 C-74.09790617 46.69766937 -71.91452089 46.09541114 -69.72973633 45.49829102 C-64.02499772 43.92286895 -58.50307982 42.18009164 -53 40 C-56.46240427 37.69173049 -57.74743327 37.75238892 -61.82756042 37.75949097 C-63.0433226 37.75674164 -64.25908478 37.75399231 -65.51168823 37.75115967 C-66.86090186 37.75823791 -68.2101145 37.76550753 -69.55932617 37.77294922 C-70.97846977 37.7735133 -72.39761395 37.77319684 -73.8167572 37.77206421 C-77.67187948 37.77148955 -81.52687771 37.78326206 -85.38197112 37.79721212 C-89.40985853 37.80970072 -93.43774868 37.8108885 -97.46565247 37.81326294 C-105.09417939 37.81948322 -112.7226491 37.83590143 -120.35115081 37.85596192 C-129.03544856 37.87830389 -137.71974902 37.88931006 -146.40406835 37.89935279 C-164.26941136 37.92026719 -182.13470108 37.9554538 -200 38 Z M-216 62 C-217.7298011 63.97378256 -219.3519607 65.91876614 -220.9375 68 C-221.3713501 68.56887939 -221.8052002 69.13775879 -222.25219727 69.72387695 C-233.46073096 84.81686615 -238.0775792 102.31404128 -235.50390625 120.9765625 C-233.33843567 134.58949057 -228.63141508 145.23572559 -220 156 C-219.45601562 156.70898438 -218.91203125 157.41796875 -218.3515625 158.1484375 C-205.02572462 174.59447157 -183.45426575 183.7752435 -163 187 C-157.48808854 187.40468114 -152.00485893 187.44813831 -146.48046875 187.43359375 C-144.92694373 187.43817366 -143.37342072 187.44348447 -141.81990051 187.44947815 C-138.58517152 187.45833947 -135.35069031 187.45606784 -132.1159668 187.44604492 C-128.0215735 187.43457888 -123.92804583 187.45476602 -119.83376598 187.48396206 C-116.63075043 187.5025315 -113.42793433 187.50199074 -110.22487831 187.49632454 C-108.71777446 187.49617376 -107.21065488 187.50201014 -105.70360374 187.51461601 C-91.9804761 187.61325982 -77.82232645 185.96360335 -65.625 179.1875 C-64.97418457 178.84420654 -64.32336914 178.50091309 -63.65283203 178.1472168 C-42.98839693 167.07643797 -27.88749838 152.16484404 -20.76342773 129.46557617 C-15.7037579 112.19481837 -18.15998526 93.92950418 -26.56640625 78.0390625 C-31.09078831 70.5439145 -36.82739587 64.17260413 -43 58 C-48.8323363 58.45126216 -54.587113 60.79569228 -60.0625 62.75 C-67.4077555 65.30706215 -74.80763008 67.21899392 -82.375 69 C-95.82250025 72.23467466 -107.15280975 75.98223115 -114.98828125 88.06640625 C-119.80411405 96.02546639 -123.54016283 104.37661796 -127 113 C-128.591317 110.6130245 -129.64840926 108.65667147 -130.734375 106.05078125 C-135.65949492 94.31511205 -135.65949492 94.31511205 -143 84 C-143.60585937 83.17242187 -144.21171875 82.34484375 -144.8359375 81.4921875 C-151.58820572 73.71610966 -163.41107883 71.46939434 -173 69 C-176.2579414 68.14708303 -179.51421904 67.2883266 -182.76904297 66.42358398 C-185.03968022 65.82112777 -187.31208156 65.22527014 -189.58642578 64.63696289 C-195.61041429 63.04680777 -201.33871238 61.21460512 -207.06542969 58.75195312 C-211.27859038 57.11432883 -212.80993629 59.1767704 -216 62 Z M-223 182 C-223.1008019 187.47276766 -223.17235343 192.94496565 -223.21972656 198.41845703 C-223.23952705 200.27044107 -223.26657479 202.12236542 -223.30175781 203.97412109 C-223.95111354 239.09662649 -212.5595852 267.90794921 -188.48388672 293.41894531 C-186.94652051 295.05698144 -185.42638198 296.70957432 -183.91015625 298.3671875 C-178.40374713 304.38503584 -172.82391514 310.28597005 -167 316 C-166.195625 316.825 -165.39125 317.65 -164.5625 318.5 C-157.87921093 325.13569444 -157.87921093 325.13569444 -150.28125 330.6171875 C-148 332 -148 332 -147 334 C-146.64899334 336.30827439 -146.34451228 338.62369069 -146.0625 340.94140625 C-145.88803114 342.34310024 -145.71355165 343.74479291 -145.5390625 345.14648438 C-145.26803484 347.36078034 -144.99845188 349.57524686 -144.72949219 351.78979492 C-144.46900704 353.92411553 -144.2034475 356.05776053 -143.9375 358.19140625 C-143.78152344 359.47217041 -143.62554687 360.75293457 -143.46484375 362.07250977 C-143.3123672 364.88345563 -143.3123672 364.88345563 -142 366 C-140.5112814 366.08669432 -139.018555 366.10703494 -137.52734375 366.09765625 C-136.31292603 366.09390991 -136.31292603 366.09390991 -135.07397461 366.09008789 C-134.03893799 366.08098389 -133.00390137 366.07187988 -131.9375 366.0625 C-127.0184375 366.0315625 -127.0184375 366.0315625 -122 366 C-121.67 353.79 -121.34 341.58 -121 329 C-113.22222222 329 -113.22222222 329 -109.5546875 332.41796875 C-108.78511719 333.20107422 -108.78511719 333.20107422 -108 334 C-104.93118456 337.10874426 -101.80180033 340.12711039 -98.609375 343.109375 C-96.98910875 344.65575289 -95.36932925 346.20264094 -93.75 347.75 C-92.92242187 348.51054687 -92.09484375 349.27109375 -91.2421875 350.0546875 C-87.32179442 353.8465431 -84.57663998 356.51009259 -83.953125 362.078125 C-83.96859375 363.37234375 -83.9840625 364.6665625 -84 366 C-80.11436275 367.29521242 -76.42199731 367.14503464 -72.375 367.125 C-71.58609375 367.12886719 -70.7971875 367.13273438 -69.984375 367.13671875 C-66.18554666 367.49980595 -66.18554666 367.49980595 -63 366 C-61.99382609 361.76273241 -61.9029914 358.22496556 -63 354 C-66.3951053 350.11336453 -70.22465596 347.16876441 -74.39794922 344.16064453 C-101.41455504 324.58780941 -119.08350985 293.03222295 -127.6875 261.5 C-127.99167847 260.39785156 -127.99167847 260.39785156 -128.30200195 259.2734375 C-131.53860234 246.86218991 -132.33681188 234.37732435 -132.625 221.625 C-132.66332473 220.19529253 -132.7023839 218.76560456 -132.7421875 217.3359375 C-132.8365474 213.89080695 -132.92112424 210.44552407 -133 207 C-133.74870361 206.98541748 -134.49740723 206.97083496 -135.26879883 206.95581055 C-165.95454793 206.29082341 -195.92264821 203.17983608 -220.6796875 183.03125 C-221.85212895 181.89740774 -221.85212895 181.89740774 -223 182 Z M-67 204 C-71.78973481 225.81048605 -66.57249162 249.20440959 -55 268 C-36.83954593 295.28906597 -10.76649075 313.40082922 21 321 C23.33111653 321.39667926 25.65212439 321.71032704 28 322 C26.63865868 319.06888232 25.07281512 316.65141069 23.0625 314.125 C22.12470703 312.93970703 22.12470703 312.93970703 21.16796875 311.73046875 C20.45253906 310.82941406 19.73710937 309.92835938 19 309 C17.74579732 307.39374043 16.49161269 305.78746672 15.23779297 304.1809082 C10.15967624 297.68452132 4.9815279 291.27558465 -0.23510742 284.89013672 C-3.54095095 280.83142884 -6.76851544 276.72893543 -9.9375 272.5625 C-15.03712062 265.87392744 -20.39005198 259.40704334 -25.75390625 252.9296875 C-28.83823729 249.2038508 -31.86923489 245.43870449 -34.87890625 241.65234375 C-38.29629533 237.37903402 -41.75664811 233.14065314 -45.21191406 228.89794922 C-48.27082652 225.13896496 -51.30597695 221.3636465 -54.3125 217.5625 C-58.03298235 212.90002319 -61.84780889 208.28680079 -66 204 C-66.33 204 -66.66 204 -67 204 Z M-106.0625 206.375 C-107.35285156 206.44460937 -108.64320313 206.51421875 -109.97265625 206.5859375 C-111.47119141 206.79089844 -111.47119141 206.79089844 -113 207 C-120.13757801 221.27515602 -111.09455103 252.38742205 -106.30078125 267.18359375 C-105.87104522 268.45703751 -105.43770587 269.72927358 -105 271 C-104.64292969 272.04285156 -104.28585938 273.08570313 -103.91796875 274.16015625 C-99.05022189 286.94014183 -90.92519638 298.72196874 -82 309 C-81.30390625 309.80566406 -80.6078125 310.61132812 -79.890625 311.44140625 C-77.63255661 313.99974969 -75.32976149 316.50681315 -73 319 C-72.17886719 319.886875 -71.35773438 320.77375 -70.51171875 321.6875 C-45.39339031 347.88498625 -7.05786503 365.06990568 29.28466797 366.23901367 C34.58695822 366.32620019 39.88549474 366.26474905 45.1875 366.1875 C47.02798358 366.1723941 48.86847945 366.15871635 50.70898438 366.14648438 C55.13963695 366.11401932 59.56967472 366.06257975 64 366 C62.73264924 363.30765868 61.3593878 361.0112714 59.50390625 358.6875 C59.02759766 358.08679688 58.55128906 357.48609375 58.06054688 356.8671875 C57.56619141 356.25101563 57.07183594 355.63484375 56.5625 355 C55.58427854 353.77111733 54.60640451 352.541958 53.62890625 351.3125 C53.16758301 350.73886719 52.70625977 350.16523438 52.23095703 349.57421875 C51.23353017 348.29865183 50.30613693 346.96853608 49.40234375 345.625 C46.98798594 342.82730404 43.51145087 342.87924727 39.98046875 342.5703125 C39.21323486 342.49901123 38.44600098 342.42770996 37.65551758 342.35424805 C36.84107178 342.27859619 36.02662598 342.20294434 35.1875 342.125 C4.64850352 339.0499028 -21.41407136 328.86383362 -45 309 C-46.21623047 308.00419922 -46.21623047 308.00419922 -47.45703125 306.98828125 C-68.2708068 289.25560004 -83.03291435 261.96515707 -87 235 C-87.14174013 232.69204589 -87.24482059 230.38150654 -87.31640625 228.0703125 C-87.35830078 226.78125 -87.40019531 225.4921875 -87.44335938 224.1640625 C-87.48316028 222.81771091 -87.52287273 221.47135671 -87.5625 220.125 C-87.60575183 218.75519667 -87.64936812 217.38540479 -87.69335938 216.015625 C-87.79915522 212.67717843 -87.90124372 209.338661 -88 206 C-94.03711398 205.95819924 -100.03505611 206.01936242 -106.0625 206.375 Z M-122 386 C-122 392.6 -122 399.2 -122 406 C-109.13 406 -96.26 406 -83 406 C-83 399.73 -83 393.46 -83 387 C-84.18910251 385.58273764 -84.18910251 385.58273764 -87.60180664 385.88647461 C-89.20459856 385.88663375 -90.8073956 385.89232937 -92.41015625 385.90234375 C-93.67320839 385.90446617 -93.67320839 385.90446617 -94.96177673 385.90663147 C-97.66205335 385.91224737 -100.36224828 385.92480252 -103.0625 385.9375 C-104.88867068 385.94251295 -106.71484266 385.94707621 -108.54101562 385.95117188 C-113.02740085 385.96137284 -117.51360855 385.98094501 -122 386 Z " fill="#B39F6D" transform="translate(312,0)"/>
<path d="M0 0 C3.68575193 2.63891115 5.97989274 5.081078 8.25 9 C8.75015625 9.845625 9.2503125 10.69125 9.765625 11.5625 C12.96023793 17.87084958 13.24738777 25.87497511 11.2109375 32.609375 C10.24127839 34.81516443 9.1853114 36.90323977 8 39 C7.46375 40.010625 6.9275 41.02125 6.375 42.0625 C5.92125 42.701875 5.4675 43.34125 5 44 C4.34 44 3.68 44 3 44 C2.67 44.99 2.34 45.98 2 47 C-5.99256183 53.56949594 -14.94048692 54.82734899 -25 54 C-32.61546779 52.57956008 -38.99878887 48.81675764 -43.796875 42.71484375 C-49.53080328 34.31873448 -50.13170666 25.96230571 -49 16 C-47.83942111 12.23508208 -46.23901594 9.22548093 -44 6 C-43.401875 5.071875 -42.80375 4.14375 -42.1875 3.1875 C-30.18923154 -8.81076846 -13.79333787 -8.84396369 0 0 Z M-16 12 C-18.28441618 14.80666091 -18.28441618 14.80666091 -17.9375 17.9375 C-16.74848193 21.8216257 -15.53463307 23.03631496 -12 25 C-8.02868124 25.08104732 -6.52244166 24.4688579 -3.5625 21.8125 C-1.76300935 19.08984175 -1.76300935 19.08984175 -1.9375 15.9375 C-3.25454709 12.29625217 -4.73605238 11.020539 -8 9 C-11.63327194 9 -13.04735927 9.95586411 -16 12 Z " fill="#BCA771" transform="translate(256,87)"/>
<path d="M0 0 C7.80203692 5.95856783 13.64368573 11.89140188 15.7421875 21.7734375 C16.84681565 31.3134079 14.30880067 39.52750863 8.39453125 47.0390625 C2.48837004 53.39122673 -4.15448905 56.41377397 -12.7265625 57.2734375 C-22.78692891 57.62595708 -30.01418278 54.61079367 -37.9375 48.5 C-43.89349551 42.8642193 -46.01297663 34.86211626 -46.4375 26.8125 C-45.35816776 17.40689046 -42.47137252 9.93194142 -35.3359375 3.5 C-25.81055103 -3.80714579 -10.64956687 -6.8062756 0 0 Z M-11.875 13.4375 C-14.08333262 16.10048933 -14.38664192 16.77577318 -14.5625 20.0625 C-14.34829714 23.89635612 -14.34829714 23.89635612 -12.4375 26 C-9.05216491 27.38885542 -6.62487235 27.45310904 -3 27 C-0.43661311 25.52006844 -0.43661311 25.52006844 1 23 C1.60817046 19.35097722 1.51417751 17.73171415 -0.625 14.6875 C-4.63350337 11.83935287 -7.41344357 11.20672179 -11.875 13.4375 Z " fill="#BCA771" transform="translate(147,84)"/>
<path d="M0 0 C5.87329831 3.01601805 10.37365253 7.37365253 15 12 C16.31175986 13.02813611 17.6369893 14.04084432 19 15 C18.42473957 18.9093341 17.27176056 21.57727506 15.1640625 24.90625 C14.59429687 25.81503906 14.02453125 26.72382813 13.4375 27.66015625 C12.839375 28.59730469 12.24125 29.53445312 11.625 30.5 C10.45039005 32.36450095 9.27590678 34.22908171 8.1015625 36.09375 C7.57900879 36.91552734 7.05645508 37.73730469 6.51806641 38.58398438 C4.97729427 41.03613636 3.48172625 43.51180774 2 46 C-1.76184159 44.7460528 -2.22083388 43.5145593 -4.28515625 40.1953125 C-4.89810547 39.21949219 -5.51105469 38.24367187 -6.14257812 37.23828125 C-6.77615234 36.21089844 -7.40972656 35.18351562 -8.0625 34.125 C-9.32421402 32.10676787 -10.58593257 30.08853858 -11.84765625 28.0703125 C-12.40461182 27.17070801 -12.96156738 26.27110352 -13.53540039 25.34423828 C-14.66028712 23.54374447 -15.82236898 21.76644653 -17 20 C-17.39120233 17.03577728 -17.44271141 15.60453007 -15.65478516 13.16308594 C-15.03909668 12.60911133 -14.4234082 12.05513672 -13.7890625 11.484375 C-13.12132812 10.87335938 -12.45359375 10.26234375 -11.765625 9.6328125 C-11.05921875 9.01148438 -10.3528125 8.39015625 -9.625 7.75 C-8.92632812 7.11320313 -8.22765625 6.47640625 -7.5078125 5.8203125 C-2.39099702 1.19549851 -2.39099702 1.19549851 0 0 Z " fill="#D7BE7D" transform="translate(184,129)"/>
</svg>
