<?xml version="1.0" standalone="no"?>
<!DOCTYPE svg PUBLIC "-//W3C//DTD SVG 1.1//EN"
 "http://www.w3.org/Graphics/SVG/1.1/DTD/svg11.dtd">
<!-- Created with svg_stack (http://github.com/astraw/svg_stack) -->
<svg xmlns:sodipodi="http://sodipodi.sourceforge.net/DTD/sodipodi-0.dtd" xmlns="http://www.w3.org/2000/svg" version="1.1" width="539.0" height="539.0">
  <defs/>
  <g id="id0:id0" transform="matrix(1.25,0,0,1.25,0.0,0.0)"><g transform="translate(0.000000,431.200000) scale(0.040000,-0.040000)" fill="#aca790" stroke="none">
</g>
</g>
  <g id="id1:id1" transform="matrix(1.25,0,0,1.25,0.0,0.0)"><g transform="translate(0.000000,431.200000) scale(0.040000,-0.040000)" fill="#a9a693" stroke="none">
</g>
</g>
  <g id="id2:id2" transform="matrix(1.25,0,0,1.25,0.0,0.0)"><g transform="translate(0.000000,431.200000) scale(0.040000,-0.040000)" fill="#a9a287" stroke="none">
</g>
</g>
  <g id="id3:id3" transform="matrix(1.25,0,0,1.25,0.0,0.0)"><g transform="translate(0.000000,431.200000) scale(0.040000,-0.040000)" fill="#afa788" stroke="none">
</g>
</g>
  <g id="id4:id4" transform="matrix(1.25,0,0,1.25,0.0,0.0)"><g transform="translate(0.000000,431.200000) scale(0.040000,-0.040000)" fill="#bbaf86" stroke="none">
</g>
</g>
  <g id="id5:id5" transform="matrix(1.25,0,0,1.25,0.0,0.0)"><g transform="translate(0.000000,431.200000) scale(0.040000,-0.040000)" fill="#e9ce85" stroke="none">
<path d="M4954 6290 c2 -190 9 -363 14 -385 6 -22 13 -60 16 -85 3 -25 10 -67 16 -95 6 -27 15 -70 20 -95 17 -84 27 -125 54 -202 14 -42 26 -86 26 -97 0 -11 5 -23 10 -26 6 -3 10 -14 10 -25 0 -10 10 -38 21 -62 12 -23 25 -52 29 -63 16 -42 183 -375 191 -381 5 -2 16 -22 25 -42 10 -20 24 -45 32 -55 9 -9 20 -25 26 -36 27 -45 65 -97 80 -110 9 -7 16 -18 16 -24 0 -11 44 -66 108 -135 24 -25 50 -57 59 -71 9 -14 39 -46 67 -71 38 -34 46 -39 33 -18 l-17 27 211 3 c121 2 214 -1 219 -6 5 -5 12 -7 16 -4 3 3 -46 59 -108 123 -62 64 -117 124 -122 133 -5 10 -27 38 -50 63 -23 25 -59 70 -81 98 -22 29 -51 66 -65 84 -14 18 -29 39 -35 48 -5 9 -34 50 -62 92 -29 42 -53 79 -53 82 0 4 -13 25 -28 48 -36 54 -132 250 -132 270 0 9 -4 19 -10 22 -5 3 -10 14 -10 24 0 9 -9 36 -20 59 -11 22 -20 48 -20 56 0 8 -4 18 -10 21 -5 3 -10 21 -10 40 0 19 -4 37 -10 40 -5 3 -10 17 -10 30 0 13 -4 27 -10 30 -5 3 -10 21 -10 40 0 19 -4 37 -10 40 -5 3 -10 21 -10 40 0 19 -4 37 -10 40 -5 3 -10 26 -10 50 0 24 -4 66 -9 92 -8 41 -20 138 -36 283 -2 19 -4 104 -4 188 -1 87 -5 152 -10 152 -6 0 -12 -15 -14 -32 l-4 -33 -1 33 -2 32 -139 0 -140 0 -4 -27 c-2 -16 -5 4 -6 42 -1 39 -6 77 -12 85 -7 10 -9 -90 -5 -330z"/>
<path d="M3081 6574 c0 -11 3 -14 6 -6 3 7 2 16 -1 19 -3 4 -6 -2 -5 -13z"/>
<path d="M6177 6577 c-4 -10 -8 -37 -8 -60 -1 -23 -4 -32 -6 -19 -4 22 -7 22 -143 22 l-139 0 -4 -27 c-3 -20 -4 -16 -6 14 0 23 -5 45 -11 48 -13 8 -12 -418 1 -495 5 -30 12 -81 15 -113 4 -32 11 -60 15 -63 5 -3 9 -20 9 -39 0 -19 5 -37 10 -40 6 -3 10 -17 10 -30 0 -13 5 -27 10 -30 6 -3 10 -16 10 -29 0 -12 4 -26 8 -31 5 -6 15 -26 22 -45 19 -53 161 -339 171 -346 5 -3 18 -25 29 -49 11 -24 24 -47 30 -50 5 -3 17 -23 27 -43 9 -20 39 -65 65 -99 26 -34 48 -65 48 -69 0 -22 304 -335 406 -417 32 -26 75 -61 95 -77 20 -17 40 -30 44 -30 4 0 20 -11 37 -25 16 -14 36 -25 44 -25 8 0 14 -4 14 -9 0 -5 30 -24 68 -42 37 -18 73 -39 79 -45 7 -7 39 -25 70 -40 32 -16 60 -31 63 -34 3 -3 330 -3 728 0 397 3 722 1 722 -3 0 -10 26 -37 35 -37 7 0 -46 77 -74 107 -12 12 -21 27 -21 33 0 5 -16 27 -35 49 -19 21 -35 42 -35 46 0 5 -21 32 -47 61 -27 29 -68 78 -93 109 -25 31 -65 79 -90 108 -25 29 -61 75 -79 102 -19 28 -48 67 -65 87 -17 20 -51 63 -76 94 -25 31 -64 78 -87 104 -24 26 -43 51 -43 57 0 5 -18 27 -40 48 -22 21 -40 43 -40 48 0 9 -54 74 -147 176 -29 32 -53 62 -53 68 0 5 -9 18 -20 28 -11 10 -20 23 -20 28 0 10 -39 57 -142 171 -32 34 -58 67 -58 72 0 6 -18 28 -40 49 -22 21 -40 44 -40 50 0 6 -18 29 -40 50 -22 21 -40 44 -40 50 0 6 -18 29 -40 50 -22 21 -40 43 -40 48 0 9 -47 68 -117 147 -24 26 -43 51 -43 55 0 4 -21 32 -47 60 -27 29 -63 69 -80 89 -20 23 -37 35 -44 30 -9 -5 -10 -2 -5 11 5 13 -3 28 -26 52 -17 18 -36 33 -42 33 -5 0 1 -11 14 -25 l23 -25 -199 0 c-188 0 -200 1 -212 20 -7 11 -17 20 -23 20 -5 0 3 -16 18 -35 19 -24 30 -31 36 -22 5 7 6 4 3 -8 -4 -14 5 -32 33 -62 22 -23 37 -43 35 -46 -3 -3 12 -25 33 -50 21 -26 52 -65 68 -87 28 -38 48 -64 157 -198 74 -90 145 -175 193 -228 25 -28 45 -54 45 -58 0 -4 16 -26 35 -49 53 -64 105 -129 155 -193 25 -31 69 -83 98 -114 28 -31 52 -61 52 -67 0 -5 14 -22 30 -38 17 -16 30 -33 30 -38 0 -8 31 -47 108 -137 17 -20 32 -41 32 -45 0 -4 19 -29 43 -55 23 -26 62 -73 87 -105 25 -32 64 -79 88 -105 23 -26 42 -51 42 -57 0 -5 18 -27 40 -48 22 -21 40 -44 40 -50 0 -6 18 -29 40 -50 22 -21 40 -44 40 -50 0 -6 14 -24 30 -40 17 -16 30 -34 30 -41 0 -6 21 -30 46 -53 40 -38 45 -47 42 -79 -3 -35 -5 -37 -42 -40 -21 -2 -43 1 -49 7 -6 6 -28 11 -49 11 -21 0 -38 5 -38 10 0 6 -20 10 -45 10 -25 0 -45 5 -45 10 0 6 -10 10 -22 10 -20 0 -69 13 -113 31 -11 4 -38 13 -60 20 -22 7 -44 17 -50 21 -5 4 -17 8 -26 8 -9 0 -22 6 -29 14 -6 8 -17 13 -24 10 -8 -3 -16 2 -20 11 -3 9 -11 15 -18 13 -17 -3 -202 88 -218 107 -7 8 -17 15 -22 15 -6 0 -30 14 -55 30 -24 17 -47 30 -51 30 -4 0 -31 18 -60 40 -29 22 -55 40 -58 40 -22 0 -434 395 -434 416 0 6 -7 17 -16 24 -21 18 -104 128 -104 139 0 4 -9 16 -20 26 -11 10 -20 24 -20 30 0 7 -6 18 -14 24 -13 11 -111 203 -138 271 -6 14 -14 33 -19 42 -5 10 -9 27 -9 37 0 11 -4 23 -10 26 -5 3 -10 17 -10 30 0 13 -4 27 -10 30 -5 3 -10 21 -10 40 0 19 -4 37 -10 40 -5 3 -10 21 -10 39 0 18 -3 36 -7 40 -20 20 -34 141 -39 336 -6 244 -6 253 -17 227z"/>
<path d="M3078 6544 c-5 -4 -9 -21 -9 -38 -1 -24 -3 -26 -6 -8 -4 22 -7 22 -143 22 l-139 0 -4 -52 -3 -53 -2 53 c-1 28 -6 52 -12 52 -12 0 -14 -107 -2 -114 5 -3 12 -74 15 -158 3 -84 9 -164 13 -178 3 -14 8 -38 11 -55 2 -16 8 -39 13 -50 5 -11 11 -36 15 -55 3 -19 8 -50 12 -68 3 -18 9 -35 14 -38 5 -3 9 -16 9 -29 0 -13 5 -27 10 -30 6 -3 10 -17 10 -30 0 -13 5 -27 10 -30 6 -3 10 -15 10 -26 0 -10 4 -27 9 -37 5 -9 13 -28 19 -42 19 -46 64 -144 107 -230 69 -137 91 -178 106 -196 7 -9 18 -24 24 -34 19 -34 98 -145 132 -185 18 -22 62 -75 98 -119 66 -81 188 -212 410 -442 l130 -134 237 2 c216 3 238 1 250 -14 7 -10 18 -18 25 -18 7 0 13 -5 13 -12 0 -6 3 -8 7 -5 12 12 -60 78 -79 73 -10 -2 -15 0 -12 5 3 6 -73 90 -169 187 -97 97 -186 191 -198 207 -12 17 -66 76 -118 132 -243 258 -283 303 -345 386 -36 48 -66 90 -66 93 0 2 -21 37 -48 77 -41 63 -120 213 -142 272 -4 11 -21 49 -37 85 -36 78 -53 129 -53 158 0 11 -4 24 -10 27 -5 3 -10 16 -10 29 0 12 -4 26 -9 32 -5 5 -11 27 -14 49 -3 22 -7 47 -10 55 -6 16 -9 34 -29 160 -7 41 -15 77 -20 80 -4 3 -9 61 -10 129 -2 67 -6 119 -10 115z"/>
<path d="M6250 4219 c0 -5 5 -7 10 -4 6 3 10 1 10 -4 0 -6 5 -11 11 -11 8 0 8 5 -1 15 -14 17 -30 20 -30 4z"/>
<path d="M7300 4220 c0 -5 7 -10 15 -10 8 0 15 5 15 10 0 6 -7 10 -15 10 -8 0 -15 -4 -15 -10z"/>
<path d="M7350 4200 c0 -5 4 -10 9 -10 6 0 13 5 16 10 3 6 -1 10 -9 10 -9 0 -16 -4 -16 -10z"/>
<path d="M5255 4180 c3 -5 8 -10 11 -10 2 0 4 5 4 10 0 6 -5 10 -11 10 -5 0 -7 -4 -4 -10z"/>
<path d="M7390 4180 c0 -5 5 -10 10 -10 6 0 10 5 10 10 0 6 -4 10 -10 10 -5 0 -10 -4 -10 -10z"/>
<path d="M4515 4160 c3 -5 8 -10 11 -10 2 0 4 5 4 10 0 6 -5 10 -11 10 -5 0 -7 -4 -4 -10z"/>
<path d="M5170 4160 c0 -5 5 -10 11 -10 5 0 7 5 4 10 -3 6 -8 10 -11 10 -2 0 -4 -4 -4 -10z"/>
<path d="M7430 4159 c0 -11 27 -12 34 -1 2 4 -4 9 -15 9 -10 1 -19 -2 -19 -8z"/>
<path d="M7498 4133 c7 -3 16 -2 19 1 4 3 -2 6 -13 5 -11 0 -14 -3 -6 -6z"/>
</g>
</g>
  <g id="id6:id6" transform="matrix(1.25,0,0,1.25,0.0,0.0)"><g transform="translate(0.000000,431.200000) scale(0.040000,-0.040000)" fill="#cfbc85" stroke="none">
</g>
</g>
  <g id="id7:id7" transform="matrix(1.25,0,0,1.25,0.0,0.0)"><g transform="translate(0.000000,431.200000) scale(0.040000,-0.040000)" fill="#978e73" stroke="none">
</g>
</g>
  <g id="id8:id8" transform="matrix(1.25,0,0,1.25,0.0,0.0)"><g transform="translate(0.000000,431.200000) scale(0.040000,-0.040000)" fill="#dbc27f" stroke="none">
<path d="M3690 7200 c0 -5 5 -10 10 -10 6 0 10 5 10 10 0 6 -4 10 -10 10 -5 0 -10 -4 -10 -10z"/>
<path d="M6355 7200 c3 -5 8 -10 11 -10 2 0 4 5 4 10 0 6 -5 10 -11 10 -5 0 -7 -4 -4 -10z"/>
<path d="M3725 7180 c-3 -5 1 -10 9 -10 9 0 16 5 16 10 0 6 -4 10 -9 10 -6 0 -13 -4 -16 -10z"/>
<path d="M6310 7180 c0 -5 7 -10 16 -10 8 0 12 5 9 10 -3 6 -10 10 -16 10 -5 0 -9 -4 -9 -10z"/>
<path d="M6869 7173 c-12 -11 -72 -14 -292 -16 -152 -1 -277 1 -277 6 0 4 -7 7 -15 7 -18 0 -20 -16 -2 -24 6 -3 -3 -3 -20 0 -32 5 -47 -9 -20 -19 6 -3 -5 -3 -25 0 -25 4 -38 2 -38 -6 0 -6 -11 -11 -24 -11 -14 0 -28 -4 -31 -10 -3 -5 -19 -10 -35 -10 -16 0 -32 -4 -35 -10 -3 -5 -19 -10 -35 -10 -16 0 -32 -4 -35 -10 -3 -5 -21 -10 -40 -10 -19 0 -37 -4 -40 -10 -3 -5 -33 -10 -65 -10 -32 0 -62 -4 -65 -10 -8 -13 -1457 -14 -1471 -1 -5 5 -34 12 -64 15 -96 9 -145 18 -154 27 -6 5 -22 9 -37 9 -15 0 -31 5 -34 10 -3 6 -19 10 -35 10 -16 0 -32 5 -35 10 -3 6 -17 10 -31 10 -13 0 -24 5 -24 11 0 8 -14 10 -42 6 -24 -3 -37 -4 -30 -1 25 11 11 25 -20 20 -18 -3 -27 -3 -20 0 17 8 15 24 -3 24 -8 0 -15 -3 -15 -7 0 -5 -120 -7 -267 -5 -152 1 -274 -2 -282 -7 -11 -7 -7 -16 24 -45 21 -20 42 -36 47 -36 6 0 19 -11 30 -25 11 -14 25 -25 32 -25 7 0 21 -8 32 -18 10 -9 51 -33 89 -52 39 -19 72 -37 75 -40 6 -6 91 -47 130 -62 14 -6 33 -14 42 -19 10 -5 25 -9 33 -9 8 0 15 -3 15 -7 0 -5 35 -19 78 -31 42 -13 85 -28 94 -33 10 -5 29 -9 42 -9 14 0 28 -4 31 -10 3 -5 21 -10 39 -10 17 0 36 -4 42 -9 5 -5 34 -11 64 -14 30 -3 105 -10 165 -16 61 -6 222 -13 359 -16 137 -3 253 -8 257 -11 5 -3 10 -132 11 -287 l3 -282 5 275 c3 151 8 267 13 257 4 -10 8 -49 8 -85 1 -37 4 -55 6 -39 l4 27 139 0 139 0 4 -32 4 -33 1 33 c1 17 7 32 13 32 7 0 10 19 8 53 -6 86 -18 82 276 100 172 10 263 13 270 6 6 -6 10 -110 9 -272 0 -217 0 -226 3 -54 2 132 7 206 13 202 6 -3 11 -25 11 -48 2 -30 3 -34 6 -14 l4 27 139 0 c136 0 139 0 143 -22 2 -13 5 -3 6 22 1 25 6 52 11 60 7 10 10 -11 12 -70 l2 -85 6 90 c4 50 11 116 15 148 7 53 10 57 34 57 25 0 69 -38 98 -86 6 -10 16 -18 23 -16 6 1 9 -2 6 -7 -4 -5 0 -15 7 -23 7 -7 42 -48 77 -92 97 -117 110 -132 108 -117 -2 8 -20 33 -40 55 -27 29 -36 47 -32 61 3 12 2 15 -3 8 -6 -9 -17 -2 -36 22 -15 19 -23 35 -18 35 6 0 16 -9 23 -20 12 -19 24 -20 212 -20 l199 0 -23 25 c-13 14 -19 25 -14 25 6 0 25 -15 42 -33 23 -24 31 -39 26 -52 -5 -13 -4 -16 5 -11 7 5 24 -7 44 -30 40 -46 130 -139 101 -104 -12 14 -45 54 -73 90 -124 158 -145 180 -154 168 -6 -9 -7 -8 -3 4 3 11 -8 32 -32 58 -20 22 -57 65 -82 96 -25 31 -59 73 -77 93 -42 49 -51 86 -28 111 10 11 24 20 32 20 7 0 16 6 19 14 3 8 19 19 35 25 16 5 29 15 29 20 0 6 7 11 15 11 8 0 27 13 41 29 14 16 35 32 47 35 12 4 33 20 46 37 25 32 26 44 0 22z m-39 -33 c0 -5 -5 -10 -11 -10 -5 0 -7 5 -4 10 3 6 8 10 11 10 2 0 4 -4 4 -10z"/>
<path d="M3077 7163 c-4 -3 -7 -16 -7 -27 0 -17 -2 -18 -9 -6 -6 8 -7 18 -5 22 3 4 -56 8 -130 8 l-135 0 -10 -32 c-7 -26 -9 -28 -10 -10 -1 12 -5 22 -11 22 -6 0 -10 -110 -10 -310 0 -189 4 -310 9 -310 6 0 12 -24 14 -52 l3 -53 2 53 2 52 139 0 c137 0 140 0 144 -22 3 -17 5 -15 6 9 0 17 6 35 11 38 6 4 10 -38 10 -119 0 -69 3 -126 8 -126 7 0 -2 858 -10 866 -3 2 -8 1 -11 -3z m10 -595 c-3 -8 -6 -5 -6 6 -1 11 2 17 5 13 3 -3 4 -12 1 -19z"/>
<path d="M3170 7160 c0 -5 5 -10 10 -10 6 0 10 5 10 10 0 6 -4 10 -10 10 -5 0 -10 -4 -10 -10z"/>
<path d="M2756 6308 c4 -56 8 -105 10 -107 2 -2 4 41 4 97 0 60 -4 103 -11 107 -7 5 -8 -25 -3 -97z"/>
<path d="M5293 6285 c0 -44 2 -61 4 -37 2 23 2 59 0 80 -2 20 -4 1 -4 -43z"/>
<path d="M6631 6283 c34 -46 63 -83 66 -83 10 0 -39 66 -95 128 -18 20 -5 0 29 -45z"/>
<path d="M7080 6296 c0 -7 44 -61 128 -154 19 -20 11 -8 -17 28 -72 92 -110 136 -111 126z"/>
<path d="M6193 6255 c0 -22 2 -30 4 -17 2 12 2 30 0 40 -3 9 -5 -1 -4 -23z"/>
<path d="M3112 6245 c0 -16 2 -22 5 -12 2 9 2 23 0 30 -3 6 -5 -1 -5 -18z"/>
<path d="M3121 6174 c0 -11 3 -14 6 -6 3 7 2 16 -1 19 -3 4 -6 -2 -5 -13z"/>
<path d="M6740 6143 c18 -24 35 -43 37 -43 9 0 -18 37 -43 60 -24 22 -23 20 6 -17z"/>
<path d="M2772 6140 c0 -19 2 -27 5 -17 2 9 2 25 0 35 -3 9 -5 1 -5 -18z"/>
<path d="M6202 6140 c0 -14 2 -19 5 -12 2 6 2 18 0 25 -3 6 -5 1 -5 -13z"/>
<path d="M5302 6105 c0 -16 2 -22 5 -12 2 9 2 23 0 30 -3 6 -5 -1 -5 -18z"/>
<path d="M6211 6094 c0 -11 3 -14 6 -6 3 7 2 16 -1 19 -3 4 -6 -2 -5 -13z"/>
<path d="M5852 6080 c0 -14 2 -19 5 -12 2 6 2 18 0 25 -3 6 -5 1 -5 -13z"/>
<path d="M7240 6094 c0 -6 17 -26 37 -45 l38 -34 -30 35 c-16 19 -33 39 -37 45 -5 5 -8 5 -8 -1z"/>
<path d="M3141 6074 c0 -11 3 -14 6 -6 3 7 2 16 -1 19 -3 4 -6 -2 -5 -13z"/>
<path d="M6825 6040 c47 -55 48 -56 37 -35 -6 11 -23 31 -39 45 l-28 25 30 -35z"/>
<path d="M5312 6040 c0 -14 2 -19 5 -12 2 6 2 18 0 25 -3 6 -5 1 -5 -13z"/>
<path d="M6220 6036 c0 -8 4 -17 9 -20 5 -4 7 3 4 14 -6 23 -13 26 -13 6z"/>
<path d="M5861 6004 c0 -11 3 -14 6 -6 3 7 2 16 -1 19 -3 4 -6 -2 -5 -13z"/>
<path d="M7320 5993 c0 -5 18 -27 40 -48 22 -21 40 -44 40 -50 0 -6 18 -29 40 -50 22 -21 40 -44 40 -50 0 -6 24 -33 52 -60 38 -35 42 -38 16 -10 -20 22 -47 54 -60 72 -74 102 -168 211 -168 196z"/>
<path d="M3160 5976 c0 -8 4 -17 9 -20 5 -4 7 3 4 14 -6 23 -13 26 -13 6z"/>
<path d="M5872 5960 c0 -14 2 -19 5 -12 2 6 2 18 0 25 -3 6 -5 1 -5 -13z"/>
<path d="M2812 5940 c0 -14 2 -19 5 -12 2 6 2 18 0 25 -3 6 -5 1 -5 -13z"/>
<path d="M5322 5940 c0 -14 2 -19 5 -12 2 6 2 18 0 25 -3 6 -5 1 -5 -13z"/>
<path d="M6920 5925 c19 -22 39 -44 44 -50 5 -5 4 -1 -2 10 -6 11 -25 33 -44 50 l-33 30 35 -40z"/>
<path d="M4962 5910 c0 -14 2 -19 5 -12 2 6 2 18 0 25 -3 6 -5 1 -5 -13z"/>
<path d="M5331 5884 c0 -11 3 -14 6 -6 3 7 2 16 -1 19 -3 4 -6 -2 -5 -13z"/>
<path d="M6261 5874 c0 -11 3 -14 6 -6 3 7 2 16 -1 19 -3 4 -6 -2 -5 -13z"/>
<path d="M3201 5844 c0 -11 3 -14 6 -6 3 7 2 16 -1 19 -3 4 -6 -2 -5 -13z"/>
<path d="M7011 5814 c24 -29 46 -50 49 -48 2 3 -18 26 -45 52 l-48 47 44 -51z"/>
<path d="M5342 5785 c0 -16 2 -22 5 -12 2 9 2 23 0 30 -3 6 -5 -1 -5 -18z"/>
<path d="M3220 5776 c0 -8 4 -17 9 -20 5 -4 7 3 4 14 -6 23 -13 26 -13 6z"/>
<path d="M7113 5685 c25 -33 55 -69 68 -80 13 -11 5 2 -16 28 -73 89 -97 113 -52 52z"/>
<path d="M5361 5694 c0 -11 3 -14 6 -6 3 7 2 16 -1 19 -3 4 -6 -2 -5 -13z"/>
<path d="M6320 5701 c0 -6 4 -13 10 -16 6 -3 7 1 4 9 -7 18 -14 21 -14 7z"/>
<path d="M3260 5691 c0 -6 4 -13 10 -16 6 -3 7 1 4 9 -7 18 -14 21 -14 7z"/>
<path d="M2887 5669 c4 -13 8 -18 11 -10 2 7 -1 18 -6 23 -8 8 -9 4 -5 -13z"/>
<path d="M5012 5650 c0 -14 2 -19 5 -12 2 6 2 18 0 25 -3 6 -5 1 -5 -13z"/>
<path d="M7598 5655 c6 -11 25 -33 44 -50 l33 -30 -35 40 c-19 22 -39 45 -44 50 -5 6 -4 1 2 -10z"/>
<path d="M3280 5646 c0 -8 4 -17 9 -20 5 -4 7 3 4 14 -6 23 -13 26 -13 6z"/>
<path d="M6340 5651 c0 -6 4 -13 10 -16 6 -3 7 1 4 9 -7 18 -14 21 -14 7z"/>
<path d="M5960 5645 c0 -5 5 -17 10 -25 5 -8 10 -10 10 -5 0 6 -5 17 -10 25 -5 8 -10 11 -10 5z"/>
<path d="M5380 5616 c0 -8 4 -17 9 -20 5 -4 7 3 4 14 -6 23 -13 26 -13 6z"/>
<path d="M6360 5611 c0 -6 4 -13 10 -16 6 -3 7 1 4 9 -7 18 -14 21 -14 7z"/>
<path d="M3300 5596 c0 -8 4 -17 9 -20 5 -4 7 3 4 14 -6 23 -13 26 -13 6z"/>
<path d="M5986 5577 c3 -10 9 -15 12 -12 3 3 0 11 -7 18 -10 9 -11 8 -5 -6z"/>
<path d="M2926 5567 c3 -10 9 -15 12 -12 3 3 0 11 -7 18 -10 9 -11 8 -5 -6z"/>
<path d="M6380 5571 c0 -6 4 -13 10 -16 6 -3 7 1 4 9 -7 18 -14 21 -14 7z"/>
<path d="M5031 5554 c0 -11 3 -14 6 -6 3 7 2 16 -1 19 -3 4 -6 -2 -5 -13z"/>
<path d="M3320 5551 c0 -6 4 -13 10 -16 6 -3 7 1 4 9 -7 18 -14 21 -14 7z"/>
<path d="M7680 5553 c0 -5 10 -18 23 -29 l22 -19 -20 25 c-11 14 -21 27 -22 29 -2 2 -3 0 -3 -6z"/>
<path d="M6006 5537 c3 -10 9 -15 12 -12 3 3 0 11 -7 18 -10 9 -11 8 -5 -6z"/>
<path d="M7255 5508 c22 -27 41 -48 43 -48 7 0 -36 56 -59 75 -12 11 -5 -1 16 -27z"/>
<path d="M6400 5531 c0 -6 4 -13 10 -16 6 -3 7 1 4 9 -7 18 -14 21 -14 7z"/>
<path d="M2946 5517 c3 -10 9 -15 12 -12 3 3 0 11 -7 18 -10 9 -11 8 -5 -6z"/>
<path d="M3340 5511 c0 -6 4 -13 10 -16 6 -3 7 1 4 9 -7 18 -14 21 -14 7z"/>
<path d="M6026 5497 c3 -10 9 -15 12 -12 3 3 0 11 -7 18 -10 9 -11 8 -5 -6z"/>
<path d="M5420 5481 c0 -11 4 -22 9 -25 4 -3 6 6 3 19 -5 30 -12 33 -12 6z"/>
<path d="M6420 5491 c0 -6 4 -13 10 -16 6 -3 7 1 4 9 -7 18 -14 21 -14 7z"/>
<path d="M7720 5494 c0 -6 21 -30 47 -54 l47 -45 -44 50 c-24 28 -45 52 -47 54 -2 2 -3 0 -3 -5z"/>
<path d="M2966 5477 c3 -10 9 -15 12 -12 3 3 0 11 -7 18 -10 9 -11 8 -5 -6z"/>
<path d="M3360 5471 c0 -6 4 -13 10 -16 6 -3 7 1 4 9 -7 18 -14 21 -14 7z"/>
<path d="M6046 5457 c3 -10 9 -15 12 -12 3 3 0 11 -7 18 -10 9 -11 8 -5 -6z"/>
<path d="M6440 5453 c0 -6 8 -17 18 -24 16 -13 16 -13 2 6 -8 11 -16 22 -17 24 -2 2 -3 0 -3 -6z"/>
<path d="M2981 5445 c0 -5 8 -26 19 -45 11 -19 19 -30 19 -25 0 6 -8 26 -19 45 -11 19 -19 31 -19 25z"/>
<path d="M7346 5399 c27 -31 51 -55 54 -52 2 2 -20 27 -50 56 l-53 52 49 -56z"/>
<path d="M3380 5433 c0 -6 8 -17 18 -24 16 -13 16 -13 2 6 -8 11 -16 22 -17 24 -2 2 -3 0 -3 -6z"/>
<path d="M6480 5393 c0 -5 10 -18 23 -29 l22 -19 -20 25 c-11 14 -21 27 -22 29 -2 2 -3 0 -3 -6z"/>
<path d="M3419 5375 c5 -11 17 -29 26 -40 l16 -20 -10 20 c-5 11 -17 29 -26 40 l-16 20 10 -20z"/>
<path d="M5081 5385 c1 -19 18 -51 18 -35 0 8 -4 22 -9 30 -5 8 -9 11 -9 5z"/>
<path d="M6086 5377 c3 -10 9 -15 12 -12 3 3 0 11 -7 18 -10 9 -11 8 -5 -6z"/>
<path d="M3026 5347 c3 -10 9 -15 12 -12 3 3 0 11 -7 18 -10 9 -11 8 -5 -6z"/>
<path d="M7870 5315 c19 -19 36 -35 39 -35 3 0 -10 16 -29 35 -19 19 -36 35 -39 35 -3 0 10 -16 29 -35z"/>
<path d="M6520 5332 c0 -5 10 -17 22 -28 l21 -19 -18 28 c-18 28 -25 33 -25 19z"/>
<path d="M3050 5300 c6 -11 13 -20 16 -20 2 0 0 9 -6 20 -6 11 -13 20 -16 20 -2 0 0 -9 6 -20z"/>
<path d="M5480 5311 c0 -6 4 -13 10 -16 6 -3 7 1 4 9 -7 18 -14 21 -14 7z"/>
<path d="M7430 5293 c13 -18 26 -30 29 -28 3 3 -8 18 -23 33 l-29 27 23 -32z"/>
<path d="M6141 5283 c7 -12 15 -20 18 -17 3 2 -3 12 -13 22 -17 16 -18 16 -5 -5z"/>
<path d="M3480 5277 c0 -8 90 -127 96 -127 3 0 -14 26 -37 58 -49 66 -59 79 -59 69z"/>
<path d="M6579 5252 c11 -16 28 -35 38 -43 9 -8 2 5 -17 29 -38 48 -52 57 -21 14z"/>
<path d="M7920 5254 c0 -6 17 -26 37 -45 l38 -34 -30 35 c-16 19 -33 39 -37 45 -5 5 -8 5 -8 -1z"/>
<path d="M3086 5237 c3 -10 9 -15 12 -12 3 3 0 11 -7 18 -10 9 -11 8 -5 -6z"/>
<path d="M7490 5215 c13 -14 26 -25 28 -25 3 0 -5 11 -18 25 -13 14 -26 25 -28 25 -3 0 5 -11 18 -25z"/>
<path d="M5520 5211 c0 -6 4 -13 10 -16 6 -3 7 1 4 9 -7 18 -14 21 -14 7z"/>
<path d="M5147 5189 c4 -13 8 -18 11 -10 2 7 -1 18 -6 23 -8 8 -9 4 -5 -13z"/>
<path d="M6201 5183 c7 -12 15 -20 18 -17 3 2 -3 12 -13 22 -17 16 -18 16 -5 -5z"/>
<path d="M6640 5174 c0 -5 19 -28 42 -49 l43 -40 -35 40 c-19 22 -38 44 -42 50 -5 5 -8 5 -8 -1z"/>
<path d="M3141 5143 c7 -12 15 -20 18 -17 3 2 -3 12 -13 22 -17 16 -18 16 -5 -5z"/>
<path d="M5166 5147 c3 -10 9 -15 12 -12 3 3 0 11 -7 18 -10 9 -11 8 -5 -6z"/>
<path d="M8000 5152 c0 -4 19 -26 42 -47 l41 -40 -38 48 c-40 49 -45 53 -45 39z"/>
<path d="M7566 5118 c15 -20 30 -35 33 -32 3 2 -10 19 -28 37 l-34 32 29 -37z"/>
<path d="M3598 5115 c11 -16 56 -64 99 -105 l78 -75 -90 95 c-49 52 -94 100 -99 105 -5 6 0 -3 12 -20z"/>
<path d="M5186 5097 c3 -10 9 -15 12 -12 3 3 0 11 -7 18 -10 9 -11 8 -5 -6z"/>
<path d="M3170 5096 c0 -2 8 -10 18 -17 15 -13 16 -12 3 4 -13 16 -21 21 -21 13z"/>
<path d="M5580 5097 c0 -9 40 -80 52 -92 6 -5 -2 13 -17 40 -29 53 -35 62 -35 52z"/>
<path d="M6250 5096 c0 -2 8 -10 18 -17 15 -13 16 -12 3 4 -13 16 -21 21 -21 13z"/>
<path d="M5206 5057 c3 -10 9 -15 12 -12 3 3 0 11 -7 18 -10 9 -11 8 -5 -6z"/>
<path d="M6280 5058 c0 -3 14 -22 30 -43 17 -21 30 -34 30 -29 -1 10 -60 82 -60 72z"/>
<path d="M7644 5020 c53 -61 63 -71 39 -35 -12 17 -34 41 -49 55 -19 17 -15 10 10 -20z"/>
<path d="M8097 5035 c12 -16 34 -41 49 -55 19 -17 15 -10 -10 20 -53 61 -63 71 -39 35z"/>
<path d="M3230 5010 c12 -16 24 -30 26 -30 3 0 -4 14 -16 30 -12 17 -24 30 -26 30 -3 0 4 -13 16 -30z"/>
<path d="M5230 5008 c0 -11 44 -88 47 -84 2 2 -6 21 -18 42 -23 42 -29 51 -29 42z"/>
<path d="M6885 4921 c33 -34 74 -72 90 -83 34 -24 28 -18 -75 77 l-75 69 60 -63z"/>
<path d="M3295 4928 c22 -27 41 -48 43 -48 7 0 -36 56 -59 75 -12 11 -5 -1 16 -27z"/>
<path d="M5660 4957 c0 -9 71 -117 78 -117 2 0 -4 12 -13 28 -44 67 -65 96 -65 89z"/>
<path d="M6390 4913 c24 -29 45 -53 47 -53 8 0 -35 55 -63 80 -16 14 -9 2 16 -27z"/>
<path d="M7700 4947 c0 -2 15 -16 33 -33 l32 -29 -29 33 c-28 30 -36 37 -36 29z"/>
<path d="M8178 4935 c6 -11 23 -31 39 -45 l28 -25 -30 35 c-47 55 -48 56 -37 35z"/>
<path d="M3799 4893 c10 -16 43 -50 72 -78 47 -44 45 -41 -16 28 -70 79 -91 98 -56 50z"/>
<path d="M5286 4897 c3 -10 9 -15 12 -12 3 3 0 11 -7 18 -10 9 -11 8 -5 -6z"/>
<path d="M3381 4820 c24 -30 91 -104 149 -165 59 -60 116 -123 127 -138 46 -61 348 -365 357 -360 5 4 6 1 2 -6 -9 -13 72 -95 159 -161 113 -86 155 -164 155 -290 0 -47 12 -66 23 -37 3 6 3 -13 1 -43 -3 -48 -2 -51 7 -25 l10 30 134 -3 c132 -3 134 -3 138 20 4 20 4 20 6 -4 0 -16 6 -28 11 -28 11 0 14 162 4 173 -4 4 -8 23 -9 44 -10 145 -24 254 -36 277 -8 16 -27 35 -44 44 -16 10 -35 22 -41 27 -7 6 -43 35 -81 65 -37 30 -158 144 -267 253 -110 110 -189 186 -177 171 12 -16 101 -109 198 -206 96 -97 172 -181 169 -187 -3 -5 2 -7 12 -5 19 5 91 -61 79 -73 -4 -3 -7 -1 -7 5 0 7 -6 12 -13 12 -7 0 -18 8 -25 18 -12 15 -34 17 -250 14 l-237 -2 -130 134 c-110 113 -263 277 -431 461 -29 32 -28 29 7 -15z m1149 -660 c0 -5 -2 -10 -4 -10 -3 0 -8 5 -11 10 -3 6 -1 10 4 10 6 0 11 -4 11 -10z"/>
<path d="M5306 4857 c3 -10 9 -15 12 -12 3 3 0 11 -7 18 -10 9 -11 8 -5 -6z"/>
<path d="M7821 4804 c19 -22 36 -39 39 -37 2 2 -13 20 -35 41 l-39 37 35 -41z"/>
<path d="M6560 4728 c57 -60 106 -108 107 -108 8 0 -5 13 -104 110 l-108 105 105 -107z"/>
<path d="M7037 4789 c18 -18 35 -31 37 -28 3 3 -12 18 -32 33 l-37 29 32 -34z"/>
<path d="M8299 4773 c5 -10 26 -34 47 -53 37 -35 37 -35 -6 18 -45 54 -58 65 -41 35z"/>
<path d="M5360 4762 c6 -13 14 -21 18 -18 3 4 -2 14 -12 24 -18 16 -18 16 -6 -6z"/>
<path d="M5780 4773 c0 -5 10 -18 23 -29 l22 -19 -20 25 c-11 14 -21 27 -22 29 -2 2 -3 0 -3 -6z"/>
<path d="M7095 4750 c8 -13 95 -73 100 -68 1 1 -22 20 -52 40 -30 21 -51 33 -48 28z"/>
<path d="M7901 4703 c19 -23 36 -39 38 -37 3 3 -12 21 -34 42 l-38 37 34 -42z"/>
<path d="M5386 4717 c3 -10 9 -15 12 -12 3 3 0 11 -7 18 -10 9 -11 8 -5 -6z"/>
<path d="M5838 4695 c6 -11 23 -31 39 -45 l28 -25 -30 35 c-47 55 -48 56 -37 35z"/>
<path d="M5421 4663 c7 -12 15 -20 18 -17 3 2 -3 12 -13 22 -17 16 -18 16 -5 -5z"/>
<path d="M7220 4666 c0 -2 16 -13 36 -25 19 -12 32 -16 29 -11 -7 11 -65 43 -65 36z"/>
<path d="M8398 4655 c6 -11 27 -36 48 -55 l38 -35 -38 45 c-53 62 -60 68 -48 45z"/>
<path d="M7981 4603 c19 -23 36 -39 38 -37 3 3 -12 21 -34 42 l-38 37 34 -42z"/>
<path d="M5465 4596 c10 -14 19 -26 22 -26 7 0 -17 39 -28 46 -6 3 -3 -5 6 -20z"/>
<path d="M5918 4593 c11 -16 33 -39 48 -53 16 -14 9 -2 -16 28 -46 56 -64 70 -32 25z"/>
<path d="M6680 4618 c0 -2 26 -26 58 -53 36 -31 46 -37 27 -16 -28 31 -85 77 -85 69z"/>
<path d="M7332 4594 c10 -10 20 -16 22 -13 3 3 -5 11 -17 18 -21 13 -21 12 -5 -5z"/>
<path d="M7377 4569 c7 -7 15 -10 18 -7 3 3 -2 9 -12 12 -14 6 -15 5 -6 -5z"/>
<path d="M7417 4549 c7 -7 15 -10 18 -7 3 3 -2 9 -12 12 -14 6 -15 5 -6 -5z"/>
<path d="M8489 4542 c5 -10 18 -25 27 -33 11 -9 9 -2 -6 19 -26 35 -36 42 -21 14z"/>
<path d="M5516 4528 c10 -14 21 -24 23 -22 3 3 -6 15 -18 27 l-24 22 19 -27z"/>
<path d="M7450 4536 c0 -2 18 -13 40 -24 22 -11 40 -16 40 -11 0 5 -2 9 -4 9 -2 0 -20 7 -40 15 -20 8 -36 13 -36 11z"/>
<path d="M8050 4513 c13 -18 26 -30 29 -28 3 3 -8 18 -23 33 l-29 27 23 -32z"/>
<path d="M6805 4514 c6 -5 23 -20 40 -34 29 -24 29 -24 10 -2 -11 13 -29 28 -40 34 -11 6 -15 6 -10 2z"/>
<path d="M6007 4485 c5 -7 59 -66 121 -130 62 -64 111 -120 108 -123 -4 -3 -11 -1 -16 4 -5 5 -98 8 -219 6 l-211 -3 17 -27 c13 -21 5 -17 -34 18 -27 25 -58 59 -68 75 -10 17 -34 44 -54 60 -35 29 -35 29 9 -25 61 -76 394 -404 455 -450 28 -20 56 -44 64 -53 7 -10 19 -17 25 -17 7 0 29 -18 51 -40 21 -21 42 -37 47 -34 5 3 17 -5 28 -18 14 -17 20 -40 21 -88 l1 -65 13 40 c10 31 14 36 20 23 7 -17 34 -18 379 -18 204 0 388 3 409 6 41 7 51 24 13 24 -14 0 -28 5 -32 11 -3 6 -20 9 -38 6 -17 -3 -25 -3 -18 0 19 8 14 23 -8 23 -11 0 -20 5 -20 10 0 6 -11 10 -24 10 -13 0 -26 7 -30 15 -3 8 -12 12 -19 9 -8 -3 -17 2 -20 10 -4 9 -13 13 -20 10 -8 -3 -17 2 -20 10 -4 9 -13 13 -22 10 -8 -3 -15 -1 -15 5 0 6 -20 20 -44 31 -25 11 -48 24 -51 30 -3 6 -25 19 -49 30 -23 10 -49 26 -56 35 -7 8 -16 15 -21 15 -5 0 -28 15 -52 33 -24 17 -72 52 -106 77 -35 24 -72 52 -83 62 -11 10 -25 15 -31 11 -5 -3 -7 -1 -3 5 3 5 2 12 -4 14 -17 5 -150 127 -278 255 -67 67 -119 116 -115 108z m273 -270 c9 -10 9 -15 1 -15 -6 0 -11 5 -11 11 0 5 -4 7 -10 4 -5 -3 -10 -1 -10 4 0 16 16 13 30 -4z m880 -575 c0 -5 -4 -10 -9 -10 -6 0 -13 5 -16 10 -3 6 1 10 9 10 9 0 16 -4 16 -10z"/>
<path d="M7560 4480 c0 -5 5 -10 11 -10 5 0 7 5 4 10 -3 6 -8 10 -11 10 -2 0 -4 -4 -4 -10z"/>
<path d="M5570 4455 c40 -48 43 -51 32 -30 -6 11 -21 29 -34 40 -22 19 -22 19 2 -10z"/>
<path d="M7600 4465 c7 -8 20 -15 29 -15 9 0 21 -4 27 -8 5 -4 27 -14 49 -21 22 -7 49 -16 60 -20 44 -18 93 -31 113 -31 12 0 22 -4 22 -10 0 -5 20 -10 45 -10 25 0 45 -4 45 -10 0 -5 17 -10 38 -10 21 0 43 -5 49 -11 14 -14 86 -7 89 9 1 7 0 8 -3 2 -6 -13 -47 -13 -87 -1 -33 10 -79 22 -161 42 -69 16 -231 68 -284 91 -35 15 -41 15 -31 3z"/>
<path d="M8111 4435 c20 -22 41 -49 47 -60 l11 -20 0 20 c-1 11 -22 38 -47 60 l-47 39 36 -39z"/>
<path d="M6881 4457 c2 -1 15 -11 29 -22 l25 -20 -19 23 c-11 12 -24 22 -29 22 -6 0 -8 -1 -6 -3z"/>
<path d="M8580 4436 c0 -5 16 -26 35 -47 19 -22 35 -44 35 -49 0 -6 12 -24 28 -41 15 -17 27 -36 27 -42 0 -9 -185 -13 -720 -17 -396 -3 -722 -3 -725 0 -3 3 -31 18 -63 34 -31 15 -63 33 -70 39 -14 14 -114 67 -124 67 -10 -1 40 -39 50 -40 5 0 27 -13 50 -28 61 -42 271 -145 347 -171 67 -23 102 -37 132 -52 10 -5 27 -9 37 -9 11 0 23 -4 26 -10 3 -5 19 -10 35 -10 16 0 31 -4 34 -9 3 -5 23 -11 43 -14 21 -3 58 -10 83 -17 87 -22 136 -31 200 -40 36 -5 115 -16 175 -24 61 -8 142 -15 180 -15 99 -1 139 -15 185 -64 22 -23 40 -47 40 -52 0 -6 18 -29 40 -50 22 -21 40 -44 40 -50 0 -18 108 -106 114 -92 3 6 4 -1 1 -18 -5 -27 -4 -28 8 -12 13 15 34 17 185 17 165 0 202 4 202 20 0 4 -16 24 -35 44 -19 21 -35 43 -35 50 0 6 -18 30 -40 51 -22 21 -40 44 -40 50 0 6 -12 22 -26 36 -15 13 -40 42 -56 64 -16 22 -45 57 -64 77 -19 20 -34 41 -34 45 0 5 -13 23 -30 41 -16 18 -35 42 -41 54 -9 17 -13 18 -21 7 -8 -11 -9 -10 -4 4 4 11 -11 38 -42 78 -26 33 -58 75 -72 92 -52 68 -90 111 -90 103z m165 -235 c-7 -6 -35 27 -35 41 0 7 9 2 20 -12 10 -14 17 -26 15 -29z m-1415 19 c0 -5 -7 -10 -15 -10 -8 0 -15 5 -15 10 0 6 7 10 15 10 8 0 15 -4 15 -10z m45 -20 c-3 -5 -10 -10 -16 -10 -5 0 -9 5 -9 10 0 6 7 10 16 10 8 0 12 -4 9 -10z m35 -20 c0 -5 -4 -10 -10 -10 -5 0 -10 5 -10 10 0 6 5 10 10 10 6 0 10 -4 10 -10z m54 -22 c-7 -11 -34 -10 -34 1 0 6 9 9 19 8 11 0 17 -5 15 -9z m53 -24 c-3 -3 -12 -4 -19 -1 -8 3 -5 6 6 6 11 1 17 -2 13 -5z"/>
<path d="M6940 4415 c0 -1 11 -10 25 -19 19 -13 23 -13 19 -2 -4 12 -44 31 -44 21z"/>
<path d="M5178 4189 c-16 -9 -18 -28 -18 -172 0 -89 3 -227 7 -307 6 -138 7 -143 19 -100 7 25 12 37 13 28 1 -17 23 -18 314 -18 288 0 355 6 334 27 -5 4 -12 1 -17 -7 -8 -13 -10 -12 -10 3 0 10 -10 28 -22 41 -299 306 -491 496 -503 496 -8 0 -15 5 -15 10 0 13 -80 12 -102 -1z m92 -9 c0 -5 -2 -10 -4 -10 -3 0 -8 5 -11 10 -3 6 -1 10 4 10 6 0 11 -4 11 -10z m-85 -20 c3 -5 1 -10 -4 -10 -6 0 -11 5 -11 10 0 6 2 10 4 10 3 0 8 -4 11 -10z"/>
<path d="M1686 3728 c-9 -12 -16 -28 -16 -35 0 -7 -4 -13 -8 -13 -5 0 -18 -18 -30 -40 -11 -22 -17 -40 -12 -40 4 0 10 4 12 9 4 11 209 18 226 7 7 -4 12 -4 12 -1 0 11 -28 35 -40 35 -6 0 -13 7 -16 15 -5 13 -97 85 -108 85 -3 0 -12 -10 -20 -22z"/>
<path d="M7220 3620 c0 -5 6 -10 14 -10 8 0 18 5 21 10 3 6 -3 10 -14 10 -12 0 -21 -4 -21 -10z"/>
<path d="M5857 3613 c-2 -5 -1 -19 4 -33 7 -23 7 -23 8 8 1 31 -3 40 -12 25z"/>
<path d="M9210 3610 c0 -5 5 -10 11 -10 5 0 7 5 4 10 -3 6 -8 10 -11 10 -2 0 -4 -4 -4 -10z"/>
<path d="M1895 3600 c3 -5 8 -10 11 -10 2 0 4 5 4 10 0 6 -5 10 -11 10 -5 0 -7 -4 -4 -10z"/>
<path d="M7285 3600 c3 -5 10 -10 16 -10 5 0 9 5 9 10 0 6 -7 10 -16 10 -8 0 -12 -4 -9 -10z"/>
<path d="M1590 3579 c0 -5 5 -7 10 -4 6 3 10 8 10 11 0 2 -4 4 -10 4 -5 0 -10 -5 -10 -11z"/>
</g>
</g>
  <g id="id9:id9" transform="matrix(1.25,0,0,1.25,0.0,0.0)"><g transform="translate(0.000000,431.200000) scale(0.040000,-0.040000)" fill="#ccb578" stroke="none">
<path d="M2730 7680 c0 -5 5 -10 11 -10 5 0 7 5 4 10 -3 6 -8 10 -11 10 -2 0 -4 -4 -4 -10z"/>
<path d="M3114 7670 c-5 -5 -88 -10 -184 -11 l-176 -1 -1 -259 c-1 -156 2 -259 8 -259 5 0 9 -10 10 -22 1 -18 3 -16 10 10 l10 32 135 0 c74 0 133 -4 130 -8 -2 -4 -1 -14 5 -22 7 -12 9 -10 9 7 0 12 5 25 10 28 6 4 11 -31 12 -97 l2 -103 3 96 c4 92 5 97 29 108 28 13 45 15 27 3 -8 -5 5 -22 42 -50 56 -44 77 -47 28 -4 -23 19 -25 25 -13 33 9 5 125 8 283 7 147 -2 267 0 267 5 0 4 7 7 15 7 18 0 20 -16 3 -24 -7 -3 2 -3 20 0 31 5 45 -9 20 -20 -7 -3 6 -2 30 1 28 4 42 2 42 -6 0 -6 10 -11 23 -11 13 0 28 -5 34 -11 6 -6 21 -9 34 -7 17 2 1 10 -51 28 -41 13 -102 37 -135 53 -33 16 -71 34 -85 41 -14 6 -27 13 -30 16 -10 10 -65 41 -82 47 -10 3 -18 9 -18 14 0 5 -9 9 -20 9 -11 0 -20 4 -20 8 0 5 -12 15 -27 23 -16 8 -41 26 -58 41 -16 16 -34 28 -39 28 -5 0 -54 45 -110 99 -114 111 -161 152 -173 150 -20 -3 -27 2 -13 11 8 5 12 11 9 14 -3 3 -10 1 -15 -4z m596 -470 c0 -5 -4 -10 -10 -10 -5 0 -10 5 -10 10 0 6 5 10 10 10 6 0 10 -4 10 -10z m40 -20 c0 -5 -7 -10 -16 -10 -8 0 -12 5 -9 10 3 6 10 10 16 10 5 0 9 -4 9 -10z m-560 -20 c0 -5 -4 -10 -10 -10 -5 0 -10 5 -10 10 0 6 5 10 10 10 6 0 10 -4 10 -10z"/>
<path d="M6933 7668 c4 -10 2 -18 -4 -18 -15 0 -58 -37 -174 -149 -55 -53 -112 -103 -127 -110 -16 -8 -28 -18 -28 -23 0 -4 -6 -8 -13 -8 -7 0 -22 -8 -33 -17 -19 -17 -39 -30 -89 -57 -11 -6 -22 -13 -25 -16 -30 -30 -223 -123 -335 -161 -63 -22 -98 -38 -83 -39 15 0 30 5 33 10 3 6 19 10 35 10 16 0 32 5 35 10 3 6 17 10 31 10 13 0 24 5 24 11 0 8 13 10 38 6 20 -3 31 -3 25 0 -27 10 -12 24 20 19 17 -3 26 -3 20 0 -18 8 -16 24 2 24 8 0 15 -3 15 -7 0 -5 125 -7 277 -6 233 2 280 4 295 17 29 25 21 4 -13 -31 -16 -18 -36 -33 -43 -33 -7 0 -25 -13 -39 -30 -15 -16 -34 -30 -42 -30 -8 0 -15 -5 -15 -11 0 -5 -13 -15 -29 -20 -16 -6 -32 -17 -35 -26 -5 -12 -3 -13 6 -6 7 5 38 26 68 47 138 93 206 152 188 160 -7 3 -4 4 7 1 16 -4 41 16 108 85 47 50 100 110 116 133 16 23 38 51 50 61 11 11 21 23 21 29 0 5 11 22 25 39 14 16 25 38 25 48 0 10 7 20 16 22 14 3 13 6 -4 26 -18 21 -26 22 -174 22 -109 0 -158 4 -167 13 -11 10 -13 9 -8 -5z m-563 -468 c0 -5 -2 -10 -4 -10 -3 0 -8 5 -11 10 -3 6 -1 10 4 10 6 0 11 -4 11 -10z m-35 -20 c3 -5 -1 -10 -9 -10 -9 0 -16 5 -16 10 0 6 4 10 9 10 6 0 13 -4 16 -10z"/>
<path d="M4830 7646 c0 -9 4 -16 9 -16 5 0 12 -13 16 -29 3 -16 15 -37 26 -47 10 -9 19 -21 19 -26 0 -5 12 -27 28 -51 15 -23 29 -47 32 -53 18 -37 67 -104 77 -104 7 0 26 29 43 65 17 35 35 67 40 70 5 3 21 30 36 60 16 30 32 55 36 55 4 0 8 7 8 15 0 8 9 24 20 35 19 19 19 20 0 30 -27 14 -360 13 -360 -1 0 -8 -5 -8 -15 1 -12 10 -15 10 -15 -4z"/>
<path d="M6815 7140 c-3 -5 -1 -10 4 -10 6 0 11 5 11 10 0 6 -2 10 -4 10 -3 0 -8 -4 -11 -10z"/>
<path d="M4015 7080 c3 -5 18 -10 32 -10 32 0 28 5 -10 14 -19 4 -26 3 -22 -4z"/>
<path d="M3260 7075 c0 -1 17 -15 37 -31 l37 -28 -19 26 c-16 22 -55 45 -55 33z"/>
<path d="M4085 7060 c3 -5 23 -10 43 -9 33 1 34 2 12 9 -36 12 -62 12 -55 0z"/>
<path d="M5945 7060 l-30 -8 32 -1 c17 0 35 4 38 9 7 11 3 11 -40 0z"/>
<path d="M4180 7040 c8 -5 31 -9 50 -9 32 1 33 2 10 9 -14 4 -36 8 -50 9 -20 1 -22 -1 -10 -9z"/>
<path d="M5840 7040 c-21 -7 -19 -8 17 -9 23 -1 45 4 48 9 7 12 -29 12 -65 0z"/>
<path d="M4304 7021 c4 -6 32 -11 63 -11 70 0 66 5 -11 15 -41 5 -56 3 -52 -4z"/>
<path d="M5675 7020 c-49 -7 -49 -7 22 -8 39 -1 75 3 78 8 7 11 -20 11 -100 0z"/>
<path d="M3354 7005 c11 -8 24 -15 30 -15 5 0 1 7 -10 15 -10 8 -23 14 -29 14 -5 0 -1 -6 9 -14z"/>
<path d="M3400 6976 c0 -2 7 -7 16 -10 8 -3 12 -2 9 4 -6 10 -25 14 -25 6z"/>
<path d="M6604 6958 l-19 -21 28 18 c28 18 33 25 19 25 -5 0 -17 -10 -28 -22z"/>
<path d="M3440 6956 c0 -2 7 -7 16 -10 8 -3 12 -2 9 4 -6 10 -25 14 -25 6z"/>
<path d="M3480 6936 c0 -2 7 -7 16 -10 8 -3 12 -2 9 4 -6 10 -25 14 -25 6z"/>
<path d="M3525 6910 c3 -5 8 -10 11 -10 2 0 4 5 4 10 0 6 -5 10 -11 10 -5 0 -7 -4 -4 -10z"/>
<path d="M3550 6896 c0 -2 7 -7 16 -10 8 -3 12 -2 9 4 -6 10 -25 14 -25 6z"/>
<path d="M6620 6865 c13 -14 26 -25 28 -25 3 0 -5 11 -18 25 -13 14 -26 25 -28 25 -3 0 5 -11 18 -25z"/>
<path d="M3738 6813 c7 -3 16 -2 19 1 4 3 -2 6 -13 5 -11 0 -14 -3 -6 -6z"/>
<path d="M6679 6792 c11 -16 28 -35 38 -43 9 -8 2 5 -17 29 -38 48 -52 57 -21 14z"/>
<path d="M3908 6753 c7 -3 16 -2 19 1 4 3 -2 6 -13 5 -11 0 -14 -3 -6 -6z"/>
<path d="M3978 6733 c7 -3 16 -2 19 1 4 3 -2 6 -13 5 -11 0 -14 -3 -6 -6z"/>
<path d="M4058 6713 c7 -3 16 -2 19 1 4 3 -2 6 -13 5 -11 0 -14 -3 -6 -6z"/>
<path d="M6270 6716 c0 -2 8 -10 18 -17 15 -13 16 -12 3 4 -13 16 -21 21 -21 13z"/>
<path d="M6756 6695 c4 -8 11 -15 16 -15 6 0 5 6 -2 15 -7 8 -14 15 -16 15 -2 0 -1 -7 2 -15z"/>
<path d="M4163 6693 c9 -2 23 -2 30 0 6 3 -1 5 -18 5 -16 0 -22 -2 -12 -5z"/>
<path d="M4343 6673 c9 -2 23 -2 30 0 6 3 -1 5 -18 5 -16 0 -22 -2 -12 -5z"/>
<path d="M5613 6673 c9 -2 23 -2 30 0 6 3 -1 5 -18 5 -16 0 -22 -2 -12 -5z"/>
<path d="M4930 6597 l5 -62 3 54 c2 30 0 58 -5 62 -4 4 -6 -20 -3 -54z"/>
<path d="M6202 6575 c0 -16 2 -22 5 -12 2 9 2 23 0 30 -3 6 -5 -1 -5 -18z"/>
<path d="M6410 6546 c0 -2 8 -10 18 -17 15 -13 16 -12 3 4 -13 16 -21 21 -21 13z"/>
<path d="M5833 6415 c0 -27 2 -38 4 -22 2 15 2 37 0 50 -2 12 -4 0 -4 -28z"/>
<path d="M2752 6305 c0 -16 2 -22 5 -12 2 9 2 23 0 30 -3 6 -5 -1 -5 -18z"/>
<path d="M3580 4597 c0 -2 15 -16 33 -33 l32 -29 -29 33 c-28 30 -36 37 -36 29z"/>
<path d="M3795 4360 c10 -11 20 -20 23 -20 3 0 -3 9 -13 20 -10 11 -20 20 -23 20 -3 0 3 -9 13 -20z"/>
<path d="M4350 4326 c0 -2 8 -10 18 -17 15 -13 16 -12 3 4 -13 16 -21 21 -21 13z"/>
<path d="M3870 4285 c19 -19 36 -35 39 -35 3 0 -10 16 -29 35 -19 19 -36 35 -39 35 -3 0 10 -16 29 -35z"/>
<path d="M6180 4317 c0 -2 15 -16 33 -33 l32 -29 -29 33 c-28 30 -36 37 -36 29z"/>
<path d="M5154 3985 c0 -104 2 -146 3 -92 2 54 2 139 0 190 -1 51 -3 7 -3 -98z"/>
<path d="M4612 4118 c7 -15 15 -23 17 -17 2 6 -4 18 -13 27 -15 15 -15 15 -4 -10z"/>
<path d="M7618 4073 c7 -3 16 -2 19 1 4 3 -2 6 -13 5 -11 0 -14 -3 -6 -6z"/>
<path d="M5440 4045 c13 -14 26 -25 28 -25 3 0 -5 11 -18 25 -13 14 -26 25 -28 25 -3 0 5 -11 18 -25z"/>
<path d="M4090 4056 c0 -2 8 -10 18 -17 15 -13 16 -12 3 4 -13 16 -21 21 -21 13z"/>
<path d="M7768 4033 c7 -3 16 -2 19 1 4 3 -2 6 -13 5 -11 0 -14 -3 -6 -6z"/>
<path d="M8920 4005 c13 -14 26 -25 28 -25 3 0 -5 11 -18 25 -13 14 -26 25 -28 25 -3 0 5 -11 18 -25z"/>
<path d="M7848 4013 c7 -3 16 -2 19 1 4 3 -2 6 -13 5 -11 0 -14 -3 -6 -6z"/>
<path d="M5480 4008 c3 -4 80 -83 173 -176 96 -98 167 -177 167 -188 0 -16 2 -16 10 -4 5 8 12 11 17 7 21 -21 -46 -27 -334 -27 -289 0 -312 1 -315 18 -3 9 -9 -3 -14 -28 -8 -42 -9 -39 -15 55 -5 91 -5 85 -7 -62 -2 -161 -2 -163 -25 -168 -13 -4 -109 -5 -213 -3 -157 2 -193 6 -206 19 -15 15 -19 36 -33 189 -9 91 -15 103 -15 27 0 -57 -19 -82 -21 -29 -2 24 -2 24 -6 4 -4 -23 -6 -23 -138 -20 l-134 3 -10 -30 c-9 -26 -10 -24 -6 23 3 45 2 50 -10 39 -11 -11 -11 -28 -4 -83 6 -38 14 -103 18 -144 16 -143 34 -255 42 -264 5 -6 9 -21 9 -34 0 -29 20 -19 21 11 0 12 3 16 6 10 7 -18 2213 -19 2213 -2 0 6 9 9 20 6 19 -5 20 0 20 143 0 82 3 155 6 164 7 18 44 22 59 7 16 -16 166 -91 181 -91 8 0 14 -4 14 -10 0 -5 11 -10 25 -10 14 0 25 -4 25 -10 0 -5 9 -10 19 -10 11 0 23 -4 26 -10 3 -5 15 -10 25 -10 11 0 36 -9 56 -21 20 -11 42 -18 50 -15 7 3 18 -2 25 -10 7 -8 19 -12 26 -10 8 3 26 0 41 -8 15 -7 32 -11 39 -9 6 2 14 -1 18 -6 3 -6 19 -11 35 -11 16 0 32 -4 35 -10 3 -5 19 -10 35 -10 16 0 32 -4 35 -10 3 -5 24 -10 46 -10 21 0 39 -4 39 -10 0 -5 23 -10 50 -10 28 0 50 -5 50 -10 0 -6 51 -10 138 -10 608 3 1807 -12 1819 -22 29 -24 20 0 -15 37 -20 22 -35 45 -34 50 1 6 -16 29 -38 50 -22 21 -40 44 -40 50 0 5 -18 28 -40 50 -21 22 -39 45 -40 51 0 6 -12 24 -28 40 -15 16 -38 44 -50 62 -13 18 -28 29 -34 26 -7 -4 -8 -2 -4 4 4 7 -22 47 -60 94 -86 106 -84 104 -84 91 0 -6 16 -28 35 -49 19 -20 35 -40 35 -44 0 -16 -37 -20 -202 -20 -151 0 -172 -2 -185 -17 -12 -16 -13 -15 -7 12 3 19 2 25 -3 18 -7 -10 -18 -4 -43 22 -49 50 -60 43 -14 -9 43 -48 74 -86 89 -108 6 -9 19 -28 29 -43 15 -20 17 -31 9 -44 -9 -14 -38 -16 -244 -16 -300 -1 -606 10 -689 23 -158 27 -188 32 -235 41 -103 21 -261 64 -271 74 -4 4 -17 7 -29 7 -12 0 -25 3 -28 7 -7 6 -66 29 -157 59 -25 9 -65 25 -90 36 -113 52 -129 57 -123 42 3 -8 16 -14 29 -14 13 0 24 -4 24 -10 0 -5 9 -10 20 -10 22 0 27 -15 8 -23 -7 -3 1 -3 18 0 18 3 35 0 38 -6 4 -6 0 -11 -10 -11 -15 0 -16 -2 -5 -12 11 -10 14 -10 18 0 5 13 53 17 53 3 0 -17 -81 -21 -446 -21 -345 0 -372 1 -379 18 -6 13 -10 8 -20 -23 l-13 -40 -1 65 c-1 49 -7 71 -22 89 -11 13 -23 21 -26 17 -4 -4 -2 -10 4 -14 23 -15 33 -65 33 -170 -1 -69 -5 -112 -13 -122 -10 -12 -47 -15 -217 -15 -144 0 -209 4 -217 12 -9 7 -13 42 -13 99 l0 87 -92 90 c-51 49 -142 137 -203 196 -60 58 -107 103 -105 99z m1775 -388 c-3 -5 -13 -10 -21 -10 -8 0 -14 5 -14 10 0 6 9 10 21 10 11 0 17 -4 14 -10z m-1386 -32 c-1 -31 -1 -31 -8 -8 -5 14 -6 28 -4 33 9 15 13 6 12 -25z m3356 22 c3 -5 1 -10 -4 -10 -6 0 -11 5 -11 10 0 6 2 10 4 10 3 0 8 -4 11 -10z m-1915 -10 c0 -5 -4 -10 -9 -10 -6 0 -13 5 -16 10 -3 6 1 10 9 10 9 0 16 -4 16 -10z"/>
<path d="M4225 3935 c39 -39 72 -69 74 -67 7 4 -79 90 -114 115 -16 12 2 -10 40 -48z"/>
<path d="M6020 3965 c19 -19 36 -35 39 -35 3 0 -10 16 -29 35 -19 19 -36 35 -39 35 -3 0 10 -16 29 -35z"/>
<path d="M7938 3993 c7 -3 16 -2 19 1 4 3 -2 6 -13 5 -11 0 -14 -3 -6 -6z"/>
<path d="M4643 3940 c0 -25 2 -35 4 -22 2 12 2 32 0 45 -2 12 -4 2 -4 -23z"/>
<path d="M8063 3973 c9 -2 23 -2 30 0 6 3 -1 5 -18 5 -16 0 -22 -2 -12 -5z"/>
<path d="M6647 3939 c12 -12 24 -21 27 -18 2 2 -8 13 -22 23 l-27 19 22 -24z"/>
<path d="M8188 3953 c6 -2 18 -2 25 0 6 3 1 5 -13 5 -14 0 -19 -2 -12 -5z"/>
<path d="M8977 3935 c12 -16 34 -41 49 -55 19 -17 15 -10 -10 20 -53 61 -63 71 -39 35z"/>
<path d="M8428 3933 c12 -2 30 -2 40 0 9 3 -1 5 -23 4 -22 0 -30 -2 -17 -4z"/>
<path d="M6712 3894 c10 -10 20 -16 22 -13 3 3 -5 11 -17 18 -21 13 -21 12 -5 -5z"/>
<path d="M6100 3897 c0 -3 19 -20 43 -38 23 -19 36 -26 28 -16 -16 20 -71 61 -71 54z"/>
<path d="M6757 3869 c7 -7 15 -10 18 -7 3 3 -2 9 -12 12 -14 6 -15 5 -6 -5z"/>
<path d="M8591 3854 c13 -17 26 -30 28 -27 3 2 -8 16 -24 31 l-28 27 24 -31z"/>
<path d="M6804 3842 c7 -12 67 -44 73 -39 1 2 -16 14 -39 27 -22 13 -38 18 -34 12z"/>
<path d="M9060 3834 c0 -6 15 -23 32 -40 l33 -29 -25 30 c-14 17 -28 34 -32 40 -5 5 -8 5 -8 -1z"/>
<path d="M6200 3817 c0 -2 19 -19 43 -37 l42 -33 -34 36 c-30 32 -51 46 -51 34z"/>
<path d="M4655 3801 c-3 -5 -1 -12 5 -16 5 -3 10 1 10 9 0 18 -6 21 -15 7z"/>
<path d="M4312 3770 c0 -19 4 -48 8 -65 7 -27 8 -26 8 15 0 25 -3 54 -8 65 -7 16 -9 13 -8 -15z"/>
<path d="M6897 3784 c6 -15 23 -19 23 -5 0 5 -7 11 -14 14 -10 4 -13 1 -9 -9z"/>
<path d="M8661 3763 c19 -23 36 -39 38 -37 3 3 -12 21 -34 42 l-38 37 34 -42z"/>
<path d="M6937 3764 c3 -7 9 -14 14 -14 14 0 10 17 -5 23 -10 4 -13 1 -9 -9z"/>
<path d="M1679 3737 c-14 -18 -38 -54 -52 -80 -15 -26 -32 -53 -37 -60 -31 -36 -62 -95 -67 -122 -5 -33 -7 -31 80 -101 9 -8 21 -14 26 -14 4 0 16 -9 26 -20 10 -11 22 -20 27 -20 4 0 21 -12 37 -26 16 -14 46 -35 67 -46 22 -11 65 -38 97 -59 32 -22 62 -37 67 -34 6 3 7 -1 4 -9 -3 -9 -1 -16 5 -16 6 0 11 3 11 8 0 12 537 4 563 -9 16 -9 13 -2 -12 25 -19 20 -39 36 -43 36 -5 0 -22 16 -39 35 -17 19 -35 35 -40 35 -5 0 -39 23 -74 50 -35 28 -67 50 -70 50 -6 0 -74 51 -109 83 -11 9 -24 17 -29 17 -5 0 -17 8 -26 19 -15 17 -110 90 -282 216 -45 33 -87 63 -93 67 -7 4 -23 -7 -37 -25z m80 -22 c27 -20 52 -42 55 -50 3 -8 10 -15 16 -15 12 0 40 -24 40 -35 0 -3 -5 -3 -12 1 -17 11 -222 4 -226 -7 -2 -5 -8 -9 -12 -9 -5 0 1 18 12 40 12 22 25 40 30 40 4 0 8 6 8 13 0 13 27 57 36 57 2 0 26 -16 53 -35z m151 -115 c0 -5 -2 -10 -4 -10 -3 0 -8 5 -11 10 -3 6 -1 10 4 10 6 0 11 -4 11 -10z m-300 -14 c0 -3 -4 -8 -10 -11 -5 -3 -10 -1 -10 4 0 6 5 11 10 11 6 0 10 -2 10 -4z"/>
<path d="M6977 3744 c3 -7 9 -14 14 -14 14 0 10 17 -5 23 -10 4 -13 1 -9 -9z"/>
<path d="M7810 3140 c-11 -7 3 -10 48 -10 35 0 62 4 62 10 0 13 -90 13 -110 0z"/>
<path d="M1985 3120 c3 -5 8 -10 11 -10 2 0 4 5 4 10 0 6 -5 10 -11 10 -5 0 -7 -4 -4 -10z"/>
<path d="M7975 3120 c3 -5 35 -10 70 -10 35 0 67 5 70 10 4 6 -22 10 -70 10 -48 0 -74 -4 -70 -10z"/>
<path d="M9630 3100 c0 -5 5 -10 10 -10 6 0 10 5 10 10 0 6 -4 10 -10 10 -5 0 -10 -4 -10 -10z"/>
</g>
</g>
  <g id="id10:id10" transform="matrix(1.25,0,0,1.25,0.0,0.0)"><g transform="translate(0.000000,431.200000) scale(0.040000,-0.040000)" fill="#af9f76" stroke="none">
</g>
</g>
  <g id="id11:id11" transform="matrix(1.25,0,0,1.25,0.0,0.0)"><g transform="translate(0.000000,431.200000) scale(0.040000,-0.040000)" fill="#968968" stroke="none">
</g>
</g>
  <g id="id12:id12" transform="matrix(1.25,0,0,1.25,0.0,0.0)"><g transform="translate(0.000000,431.200000) scale(0.040000,-0.040000)" fill="#bfaa73" stroke="none">
<path d="M2550 8137 c0 -15 5 -27 11 -27 6 0 10 -15 8 -32 -3 -46 11 -100 42 -160 5 -10 9 -27 9 -38 0 -11 5 -20 10 -20 6 0 10 -7 10 -16 0 -10 21 -58 46 -108 25 -50 50 -111 54 -136 l8 -45 1 51 1 52 177 1 c108 1 182 6 190 13 9 7 13 7 13 -1 0 -6 -5 -11 -11 -11 -5 0 -8 -4 -4 -10 3 -5 11 -7 18 -4 7 2 51 -30 98 -72 l84 -78 -82 85 c-44 46 -107 122 -138 169 -32 47 -60 87 -64 90 -3 3 -15 23 -27 45 -11 22 -25 49 -31 60 -6 11 -17 34 -24 50 -7 17 -20 38 -27 47 -8 10 -12 24 -9 33 4 9 1 15 -8 15 -8 0 -15 9 -15 20 0 11 -4 20 -10 20 -5 0 -10 -3 -10 -7 0 -5 -69 -7 -152 -6 -128 2 -153 4 -153 17 0 8 -4 18 -8 22 -4 4 -7 -5 -7 -19z m195 -457 c3 -5 1 -10 -4 -10 -6 0 -11 5 -11 10 0 6 2 10 4 10 3 0 8 -4 11 -10z"/>
<path d="M5025 8140 c3 -5 10 -10 16 -10 5 0 9 5 9 10 0 6 -7 10 -16 10 -8 0 -12 -4 -9 -10z"/>
<path d="M3628 8124 c-9 -8 53 -65 63 -58 5 3 12 -2 15 -11 4 -10 13 -13 24 -10 12 4 22 -1 28 -11 5 -9 15 -14 23 -12 8 3 19 -1 24 -8 34 -45 371 -24 390 23 3 9 12 13 19 10 8 -3 17 1 20 10 4 8 13 13 21 9 9 -3 15 0 15 9 0 8 -5 15 -12 15 -6 0 -9 2 -6 5 3 3 16 1 30 -4 19 -7 27 -5 36 10 15 23 15 32 2 24 -12 -7 -668 -8 -679 0 -5 2 -11 2 -13 -1z"/>
<path d="M4921 8063 c-36 -35 -70 -63 -76 -63 -15 0 -145 -130 -145 -144 0 -34 186 -344 198 -331 3 3 -4 15 -16 28 -11 12 -24 34 -27 50 -4 15 -11 27 -16 27 -5 0 -9 7 -9 16 0 14 3 14 15 4 10 -9 15 -9 15 -1 0 16 333 15 363 -1 18 -9 24 -7 42 16 28 37 60 91 91 152 l25 52 -25 25 c-13 13 -39 35 -58 47 -18 13 -57 46 -85 73 -29 28 -55 48 -59 45 -3 -4 -24 10 -46 30 -32 29 -47 37 -80 37 -37 0 -48 -7 -107 -62z"/>
<path d="M5716 8123 c-11 -11 -6 -22 8 -17 7 3 22 -6 32 -19 11 -13 25 -22 32 -19 6 2 15 -3 18 -12 3 -8 11 -13 19 -10 7 3 15 -2 19 -11 4 -11 12 -15 23 -11 9 4 23 0 32 -7 45 -40 329 -40 368 -1 7 7 22 10 33 7 14 -4 20 0 20 11 0 9 6 16 13 15 20 -3 51 13 71 39 10 13 25 21 32 18 8 -3 14 -1 14 4 0 6 -136 10 -355 9 -195 0 -359 2 -364 5 -4 3 -11 3 -15 -1z"/>
<path d="M7490 8123 c0 -5 -72 -7 -161 -6 -152 2 -160 1 -154 -16 4 -14 1 -19 -12 -17 -13 1 -17 -5 -15 -22 2 -13 -3 -25 -12 -28 -9 -3 -16 -17 -16 -30 0 -13 -4 -24 -10 -24 -5 0 -10 -9 -10 -20 0 -11 -3 -20 -8 -20 -4 0 -18 -21 -32 -47 -13 -27 -27 -50 -30 -53 -3 -3 -17 -23 -30 -45 -38 -63 -95 -131 -220 -259 l-115 -120 123 117 c68 64 129 117 137 117 9 0 12 6 8 18 -5 14 -3 15 8 5 9 -9 58 -13 167 -13 146 0 156 -1 173 -22 19 -21 20 -21 34 -2 8 10 12 28 9 39 -4 16 -3 17 5 5 8 -12 15 -3 37 40 14 30 41 82 59 115 18 33 33 70 34 82 1 12 6 25 11 28 6 3 10 17 10 30 0 13 5 27 10 30 6 3 7 17 4 30 -4 15 0 26 9 32 16 9 12 63 -4 63 -5 0 -9 -3 -9 -7z"/>
<path d="M5210 7611 c-13 -25 -13 -34 0 -26 16 10 32 45 21 45 -6 0 -15 -9 -21 -19z"/>
<path d="M7270 7591 c0 -11 -12 -34 -26 -51 -15 -17 -24 -33 -22 -35 3 -3 18 14 35 38 44 62 46 67 29 67 -9 0 -16 -8 -16 -19z"/>
<path d="M5162 7528 c-12 -23 -20 -43 -18 -45 2 -2 15 16 29 41 14 26 23 46 19 46 -4 0 -17 -19 -30 -42z"/>
<path d="M2753 7450 c0 -41 2 -58 4 -37 2 20 2 54 0 75 -2 20 -4 3 -4 -38z"/>
<path d="M4910 7490 c6 -11 13 -20 16 -20 2 0 0 9 -6 20 -6 11 -13 20 -16 20 -2 0 0 -9 6 -20z"/>
<path d="M3363 7445 c26 -26 50 -46 52 -43 2 2 -19 23 -48 47 l-52 44 48 -48z"/>
<path d="M7184 7458 c-30 -34 -47 -58 -42 -58 3 0 19 18 37 40 34 43 38 55 5 18z"/>
<path d="M5115 7450 c-10 -11 -16 -22 -14 -24 2 -2 12 7 22 20 22 29 17 32 -8 4z"/>
<path d="M4930 7456 c0 -2 8 -10 18 -17 15 -13 16 -12 3 4 -13 16 -21 21 -21 13z"/>
<path d="M6645 7410 c-3 -5 -1 -10 4 -10 6 0 11 5 11 10 0 6 -2 10 -4 10 -3 0 -8 -4 -11 -10z"/>
<path d="M5085 7399 c-4 -6 -5 -12 -2 -15 2 -3 7 2 10 11 7 17 1 20 -8 4z"/>
<path d="M5011 7334 c-1 -18 26 -37 34 -24 3 5 0 10 -9 10 -8 0 -17 6 -19 13 -4 7 -6 8 -6 1z"/>
<path d="M7032 7284 c-7 -8 -8 -14 -3 -14 10 0 25 19 20 25 -2 1 -10 -3 -17 -11z"/>
<path d="M5760 3735 c13 -14 26 -25 28 -25 3 0 -5 11 -18 25 -13 14 -26 25 -28 25 -3 0 5 -11 18 -25z"/>
<path d="M1669 3733 c-13 -16 -12 -17 4 -4 9 7 17 15 17 17 0 8 -8 3 -21 -13z"/>
<path d="M4682 3645 c0 -16 2 -22 5 -12 2 9 2 23 0 30 -3 6 -5 -1 -5 -18z"/>
<path d="M1602 3630 c-18 -29 -15 -38 4 -12 9 13 14 25 12 27 -2 2 -9 -5 -16 -15z"/>
<path d="M4332 3600 c0 -14 2 -19 5 -12 2 6 2 18 0 25 -3 6 -5 1 -5 -13z"/>
<path d="M5883 3555 c0 -27 2 -38 4 -22 2 15 2 37 0 50 -2 12 -4 0 -4 -28z"/>
<path d="M1551 3554 c-12 -19 -16 -32 -11 -29 11 7 43 65 36 65 -2 0 -13 -16 -25 -36z"/>
<path d="M7458 3563 c7 -3 16 -2 19 1 4 3 -2 6 -13 5 -11 0 -14 -3 -6 -6z"/>
<path d="M2040 3526 c0 -2 8 -10 18 -17 15 -13 16 -12 3 4 -13 16 -21 21 -21 13z"/>
<path d="M7598 3523 c7 -3 16 -2 19 1 4 3 -2 6 -13 5 -11 0 -14 -3 -6 -6z"/>
<path d="M9331 3503 c7 -12 15 -20 18 -17 3 2 -3 12 -13 22 -17 16 -18 16 -5 -5z"/>
<path d="M1517 3503 c-4 -3 -7 -19 -7 -34 0 -20 12 -38 47 -68 26 -22 50 -38 53 -35 2 3 -3 10 -12 15 -9 5 -31 21 -48 36 -27 23 -31 31 -27 60 6 34 5 38 -6 26z"/>
<path d="M4702 3485 c0 -16 2 -22 5 -12 2 9 2 23 0 30 -3 6 -5 -1 -5 -18z"/>
<path d="M7678 3503 c6 -2 18 -2 25 0 6 3 1 5 -13 5 -14 0 -19 -2 -12 -5z"/>
<path d="M2092 3478 c8 -7 25 -19 38 -26 21 -11 20 -9 -5 12 -30 26 -59 37 -33 14z"/>
<path d="M4352 3460 c0 -19 2 -27 5 -17 2 9 2 25 0 35 -3 9 -5 1 -5 -18z"/>
<path d="M6332 3470 c0 -14 2 -19 5 -12 2 6 2 18 0 25 -3 6 -5 1 -5 -13z"/>
<path d="M7788 3483 c6 -2 18 -2 25 0 6 3 1 5 -13 5 -14 0 -19 -2 -12 -5z"/>
<path d="M5881 3454 c0 -11 3 -14 6 -6 3 7 2 16 -1 19 -3 4 -6 -2 -5 -13z"/>
<path d="M7908 3463 c6 -2 18 -2 25 0 6 3 1 5 -13 5 -14 0 -19 -2 -12 -5z"/>
<path d="M8058 3443 c12 -2 32 -2 45 0 12 2 2 4 -23 4 -25 0 -35 -2 -22 -4z"/>
<path d="M2160 3434 c0 -8 33 -33 89 -69 8 -5 43 -31 78 -57 34 -27 67 -48 72 -48 5 0 23 -16 40 -35 17 -19 34 -35 39 -35 4 0 24 -16 43 -36 25 -27 28 -34 12 -25 -26 13 -563 21 -563 9 0 -5 -5 -8 -11 -8 -6 0 -8 7 -5 16 3 9 2 12 -5 9 -5 -4 -24 4 -42 17 -49 37 -139 90 -144 85 -4 -5 195 -149 279 -202 9 -5 37 -25 62 -42 26 -18 50 -33 55 -33 4 0 23 -13 41 -30 18 -16 40 -30 47 -30 7 0 13 -3 13 -7 0 -5 10 -13 23 -19 69 -35 89 -48 94 -60 3 -8 10 -14 17 -14 6 0 27 -13 46 -30 19 -16 40 -29 47 -30 7 0 25 -13 41 -28 16 -15 34 -26 40 -24 7 2 12 -1 12 -7 0 -6 7 -11 15 -11 8 0 15 -7 15 -16 0 -13 3 -14 13 -6 12 10 489 19 526 10 8 -2 16 3 18 10 3 7 -1 10 -10 6 -8 -3 -21 3 -28 14 -8 10 -28 26 -46 35 -17 9 -38 25 -45 34 -7 10 -25 24 -40 32 -16 8 -28 18 -28 23 0 4 -6 8 -14 8 -8 0 -24 13 -37 30 -13 16 -30 30 -38 30 -7 0 -24 12 -37 28 -13 15 -24 23 -24 19 0 -5 -6 -2 -13 5 -8 7 -26 22 -42 33 -15 11 -40 31 -56 43 -16 13 -29 21 -29 17 0 -4 -33 22 -72 57 -81 72 -159 132 -293 228 -49 35 -105 75 -122 88 -18 13 -33 20 -33 16z m-160 -314 c0 -5 -2 -10 -4 -10 -3 0 -8 5 -11 10 -3 6 -1 10 4 10 6 0 11 -4 11 -10z"/>
<path d="M5913 3423 c9 -2 25 -2 35 0 9 3 1 5 -18 5 -19 0 -27 -2 -17 -5z"/>
<path d="M6273 3423 c9 -2 25 -2 35 0 9 3 1 5 -18 5 -19 0 -27 -2 -17 -5z"/>
<path d="M9400 3414 c0 -3 16 -22 36 -42 l36 -37 -32 43 c-33 41 -40 48 -40 36z"/>
<path d="M1620 3356 c0 -3 30 -25 68 -51 50 -35 59 -39 35 -16 -18 17 -36 31 -41 31 -5 0 -17 9 -27 20 -16 18 -35 26 -35 16z"/>
<path d="M6978 3353 c7 -3 16 -2 19 1 4 3 -2 6 -13 5 -11 0 -14 -3 -6 -6z"/>
<path d="M4372 3295 c0 -16 2 -22 5 -12 2 9 2 23 0 30 -3 6 -5 -1 -5 -18z"/>
<path d="M7070 3316 c0 -2 9 -6 20 -9 11 -3 18 -1 14 4 -5 9 -34 13 -34 5z"/>
<path d="M9480 3313 c0 -5 19 -27 42 -48 l42 -40 -33 42 c-34 45 -51 60 -51 46z"/>
<path d="M7180 3280 c0 -5 5 -10 11 -10 5 0 7 5 4 10 -3 6 -8 10 -11 10 -2 0 -4 -4 -4 -10z"/>
<path d="M7235 3260 c3 -5 14 -10 23 -10 15 0 15 2 2 10 -20 13 -33 13 -25 0z"/>
<path d="M7300 3240 c0 -5 7 -10 16 -10 8 0 12 5 9 10 -3 6 -10 10 -16 10 -5 0 -9 -4 -9 -10z"/>
<path d="M7340 3226 c0 -5 103 -36 120 -36 6 0 8 5 5 10 -3 6 -19 10 -35 10 -16 0 -32 5 -35 10 -6 10 -55 15 -55 6z"/>
<path d="M9557 3214 c-3 -3 12 -24 33 -47 37 -38 48 -64 17 -39 -12 10 -1211 25 -1819 22 -87 0 -138 4 -138 10 0 5 -19 10 -42 9 -41 -1 -39 -2 32 -20 41 -11 91 -18 112 -15 20 2 40 0 45 -5 4 -4 37 -9 73 -11 36 -2 67 -6 71 -10 3 -4 57 -10 120 -14 62 -3 120 -7 127 -9 29 -10 1465 -6 1475 4 6 6 -1 23 -21 48 -41 51 -77 85 -85 77z m-1637 -74 c0 -6 -27 -10 -62 -10 -45 0 -59 3 -48 10 20 13 110 13 110 0z m195 -20 c-3 -5 -35 -10 -70 -10 -35 0 -67 5 -70 10 -4 6 22 10 70 10 48 0 74 -4 70 -10z m1535 -20 c0 -5 -4 -10 -10 -10 -5 0 -10 5 -10 10 0 6 5 10 10 10 6 0 10 -4 10 -10z"/>
<path d="M7495 3180 c28 -12 55 -12 55 0 0 6 -17 10 -37 9 -31 0 -34 -2 -18 -9z"/>
<path d="M4396 3133 c3 -21 9 -41 11 -45 2 -5 78 -8 168 -8 146 0 165 -2 173 -17 5 -10 13 -89 16 -176 8 -164 12 -191 27 -181 5 3 9 -2 9 -10 0 -14 20 -16 140 -16 118 0 140 2 140 15 0 8 5 14 12 13 17 -4 24 60 27 217 2 92 6 134 16 144 12 12 274 15 696 7 110 -2 109 1 109 -175 0 -80 3 -162 6 -182 l6 -36 154 -2 c136 -2 154 0 154 14 0 9 4 14 9 11 17 -11 21 26 21 178 0 115 3 157 14 172 13 17 31 19 197 24 l183 5 2 33 c2 33 -25 60 -34 34 -6 -18 -2208 -17 -2215 1 -3 6 -6 2 -6 -10 -1 -31 -21 -40 -21 -9 0 14 -5 28 -11 31 -7 5 -8 -5 -3 -32z"/>
<path d="M5095 2650 c3 -5 8 -10 11 -10 2 0 4 5 4 10 0 6 -5 10 -11 10 -5 0 -7 -4 -4 -10z"/>
<path d="M5950 2649 c0 -5 5 -7 10 -4 6 3 10 8 10 11 0 2 -4 4 -10 4 -5 0 -10 -5 -10 -11z"/>
</g>
</g>
  <g id="id13:id13" transform="matrix(1.25,0,0,1.25,0.0,0.0)"><g transform="translate(0.000000,431.200000) scale(0.040000,-0.040000)" fill="#b29e6c" stroke="none">
<path d="M5041 8624 c0 -11 3 -14 6 -6 3 7 2 16 -1 19 -3 4 -6 -2 -5 -13z"/>
<path d="M4530 8621 c0 -6 5 -13 10 -16 6 -3 10 1 10 9 0 9 -4 16 -10 16 -5 0 -10 -4 -10 -9z"/>
<path d="M5508 8539 c-7 -109 2 -153 51 -252 42 -86 140 -196 153 -172 5 8 13 13 18 10 5 -3 174 -6 376 -6 l366 0 30 28 c33 31 113 143 102 143 -4 0 1 9 12 21 10 12 18 24 18 28 -1 6 2 19 17 61 13 39 29 140 28 179 -1 30 -2 32 -8 12 -6 -21 -8 -22 -20 -7 -11 13 -33 16 -111 16 -69 0 -100 4 -103 13 -3 7 -6 5 -6 -5 -1 -10 -5 -18 -10 -18 -4 0 -21 -12 -37 -27 -16 -16 -36 -29 -44 -30 -8 -1 -42 -6 -75 -12 -48 -9 -62 -8 -70 2 -5 8 -15 12 -20 10 -6 -2 -21 10 -33 27 -13 16 -31 30 -41 30 -13 0 -18 6 -16 18 1 9 0 12 -2 5 -3 -9 -74 -13 -280 -15 -265 -3 -276 -2 -283 16 -4 12 -9 -19 -12 -75z"/>
<path d="M3961 8613 c-1 -10 -62 -13 -270 -13 l-269 0 -16 -25 c-13 -20 -16 -39 -11 -88 7 -69 37 -172 65 -226 26 -51 176 -191 203 -191 7 0 0 11 -15 25 -16 13 -24 26 -19 29 4 3 10 3 13 1 7 -8 666 -7 678 0 14 9 12 -9 -2 -23 -8 -8 -8 -12 -1 -12 31 0 182 167 166 184 -4 3 -2 6 4 6 6 0 16 15 23 33 7 17 16 41 20 52 21 53 32 105 27 124 -3 12 -1 23 3 26 4 3 8 21 7 40 -1 25 -5 34 -14 31 -7 -3 -13 -1 -13 4 0 6 -45 10 -109 10 -60 0 -111 3 -114 8 -2 4 -2 1 -1 -5 2 -7 -3 -13 -11 -13 -7 0 -26 -13 -42 -28 -27 -27 -33 -29 -116 -29 -64 -1 -90 3 -94 13 -2 7 -10 11 -16 9 -13 -5 -61 34 -70 56 -4 9 -6 10 -6 2z"/>
<path d="M5000 8606 c0 -2 7 -9 15 -16 9 -7 15 -8 15 -2 0 5 -7 12 -15 16 -8 3 -15 4 -15 2z"/>
<path d="M2520 8590 c0 -6 -4 -9 -9 -6 -5 3 -12 -1 -15 -9 -6 -15 9 -288 19 -335 31 -161 55 -231 55 -162 0 18 -4 32 -10 32 -5 0 -10 12 -10 27 0 14 3 23 7 19 4 -4 8 -14 8 -22 0 -13 25 -15 153 -17 83 -1 152 1 152 6 0 4 5 7 10 7 6 0 10 -9 10 -20 0 -11 5 -20 11 -20 13 0 9 27 -16 115 -9 33 -18 74 -20 90 -1 17 -8 57 -13 90 -6 33 -13 94 -17 137 l-7 76 -154 1 c-106 1 -154 -2 -154 -9z"/>
<path d="M7260 8590 c0 -5 -7 -7 -15 -4 -17 7 -21 -11 -5 -21 12 -8 13 -52 1 -59 -5 -3 -12 -50 -16 -103 -4 -54 -11 -105 -16 -114 -4 -9 -10 -27 -12 -40 -3 -13 -14 -53 -26 -88 -25 -77 -24 -68 -5 -75 12 -4 14 -1 9 14 -6 18 -1 19 154 17 89 -1 161 1 161 6 0 19 20 4 21 -15 0 -22 1 -22 9 -3 4 11 15 54 24 95 9 41 19 86 22 100 4 14 8 70 9 125 2 55 6 112 10 127 8 32 -3 57 -16 37 -6 -10 -9 -11 -9 -1 0 9 -37 12 -150 12 -90 0 -150 -4 -150 -10z"/>
<path d="M5025 8560 c-3 -5 -1 -10 4 -10 6 0 11 5 11 10 0 6 -2 10 -4 10 -3 0 -8 -4 -11 -10z"/>
<path d="M5001 8149 c-12 -11 -21 -21 -21 -23 0 -2 20 -3 44 -2 38 1 50 -4 85 -36 57 -54 60 -31 3 26 -56 54 -82 62 -111 35z m49 -9 c0 -5 -4 -10 -9 -10 -6 0 -13 5 -16 10 -3 6 1 10 9 10 9 0 16 -4 16 -10z"/>
<path d="M4895 8055 c-33 -30 -55 -54 -50 -54 6 0 36 24 69 54 32 30 54 55 50 55 -5 -1 -36 -25 -69 -55z"/>
<path d="M5720 8104 c0 -9 32 -33 44 -34 5 0 1 9 -9 20 -18 20 -35 26 -35 14z"/>
<path d="M6407 8092 c-25 -27 -21 -35 8 -16 25 16 33 34 17 34 -5 0 -16 -8 -25 -18z"/>
<path d="M4256 8093 c6 -4 13 -13 15 -20 3 -8 9 -9 19 -3 17 11 13 15 -20 24 -14 4 -20 4 -14 -1z"/>
<path d="M2910 8067 c0 -8 6 -20 14 -26 12 -10 13 -8 9 9 -7 25 -23 37 -23 17z"/>
<path d="M3685 8060 c-3 -5 1 -10 10 -10 9 0 13 5 10 10 -3 6 -8 10 -10 10 -2 0 -7 -4 -10 -10z"/>
<path d="M4237 8063 c-12 -12 -7 -22 8 -17 8 4 15 10 15 15 0 11 -14 12 -23 2z"/>
<path d="M5780 8062 c0 -5 7 -13 16 -16 10 -4 14 -1 12 6 -5 15 -28 23 -28 10z"/>
<path d="M7136 8054 c-4 -9 -4 -19 -1 -22 2 -3 7 3 11 12 4 9 4 19 1 22 -2 3 -7 -3 -11 -12z"/>
<path d="M7495 8057 c-4 -10 -5 -21 -1 -24 10 -10 18 4 13 24 -4 17 -4 17 -12 0z"/>
<path d="M6355 8050 c-3 -5 -12 -7 -20 -3 -8 3 -15 0 -15 -6 0 -6 6 -11 13 -11 15 1 55 30 40 30 -7 0 -14 -4 -18 -10z"/>
<path d="M3730 8040 c0 -5 7 -10 16 -10 8 0 12 5 9 10 -3 6 -10 10 -16 10 -5 0 -9 -4 -9 -10z"/>
<path d="M4197 8043 c-12 -12 -7 -22 8 -17 8 4 15 10 15 15 0 11 -14 12 -23 2z"/>
<path d="M5820 8040 c0 -5 5 -10 10 -10 6 0 10 5 10 10 0 6 -4 10 -10 10 -5 0 -10 -4 -10 -10z"/>
<path d="M3785 8020 c-3 -5 -1 -10 4 -10 6 0 11 5 11 10 0 6 -2 10 -4 10 -3 0 -8 -4 -11 -10z"/>
<path d="M5875 8020 c3 -5 11 -10 16 -10 6 0 7 5 4 10 -3 6 -11 10 -16 10 -6 0 -7 -4 -4 -10z"/>
<path d="M6270 8020 c-12 -8 -10 -10 8 -10 13 0 20 4 17 10 -7 12 -6 12 -25 0z"/>
<path d="M7111 7994 c0 -11 3 -14 6 -6 3 7 2 16 -1 19 -3 4 -6 -2 -5 -13z"/>
<path d="M4068 7993 c7 -3 16 -2 19 1 4 3 -2 6 -13 5 -11 0 -14 -3 -6 -6z"/>
<path d="M5958 7993 c7 -3 16 -2 19 1 4 3 -2 6 -13 5 -11 0 -14 -3 -6 -6z"/>
<path d="M6188 7993 c6 -2 18 -2 25 0 6 3 1 5 -13 5 -14 0 -19 -2 -12 -5z"/>
<path d="M7481 7984 c0 -11 3 -14 6 -6 3 7 2 16 -1 19 -3 4 -6 -2 -5 -13z"/>
<path d="M5265 7966 c17 -14 34 -26 39 -26 11 0 11 0 -34 29 l-35 23 30 -26z"/>
<path d="M4729 7903 l-24 -28 28 24 c25 23 32 31 24 31 -2 0 -14 -12 -28 -27z"/>
<path d="M2611 7894 c0 -11 3 -14 6 -6 3 7 2 16 -1 19 -3 4 -6 -2 -5 -13z"/>
<path d="M5340 7906 c0 -2 8 -10 18 -17 15 -13 16 -12 3 4 -13 16 -21 21 -21 13z"/>
<path d="M2631 7844 c0 -11 3 -14 6 -6 3 7 2 16 -1 19 -3 4 -6 -2 -5 -13z"/>
<path d="M9640 3080 l-25 -8 28 -1 c15 -1 27 4 27 9 0 6 -1 10 -2 9 -2 -1 -14 -5 -28 -9z"/>
<path d="M6608 3073 c12 -2 30 -2 40 0 9 3 -1 5 -23 4 -22 0 -30 -2 -17 -4z"/>
<path d="M9488 3073 c7 -3 16 -2 19 1 4 3 -2 6 -13 5 -11 0 -14 -3 -6 -6z"/>
<path d="M2650 3066 c0 -2 8 -10 18 -17 15 -13 16 -12 3 4 -13 16 -21 21 -21 13z"/>
<path d="M2854 2915 c8 -8 18 -15 22 -15 3 0 1 7 -6 15 -7 8 -17 15 -22 15 -5 0 -3 -7 6 -15z"/>
<path d="M2315 2865 c220 -152 295 -209 295 -223 0 -29 -54 -33 -520 -36 -674 -5 -603 -1 -622 -34 -14 -23 -15 -40 -8 -93 4 -35 7 -97 7 -137 l-2 -72 30 -1 c17 -1 47 0 68 1 23 1 37 -3 37 -10 0 -9 4 -10 13 -2 9 8 96 11 256 12 133 0 247 2 252 6 6 3 17 0 25 -7 12 -10 17 -8 29 7 14 18 16 18 29 2 13 -18 42 -26 31 -9 -9 15 35 24 51 10 11 -9 18 -9 26 -1 17 17 43 15 59 -4 11 -14 13 -14 21 0 12 21 27 20 50 -1 15 -14 19 -14 16 -3 -3 13 45 15 353 16 195 0 360 3 366 7 5 3 38 2 73 -3 52 -7 65 -6 78 7 14 14 17 14 27 -1 14 -19 36 -21 32 -4 -3 19 42 22 49 4 8 -21 24 -20 39 1 11 14 16 15 28 5 13 -11 19 -11 36 0 17 10 25 10 41 0 12 -7 20 -8 20 -2 0 14 57 13 62 -1 2 -7 11 -7 30 1 22 10 30 9 54 -7 28 -19 48 -19 649 -13 341 4 1724 8 3072 8 1854 1 2458 5 2472 13 16 11 19 30 23 168 3 86 3 159 1 164 -2 4 -819 7 -1814 7 -1189 0 -1816 3 -1829 10 -10 5 -22 24 -26 42 -4 18 -9 27 -11 20 -3 -6 -9 -10 -14 -6 -5 3 -9 -2 -9 -11 0 -14 -18 -16 -152 -14 l-153 2 -6 26 c-6 23 -7 22 -8 -10 0 -20 -7 -41 -14 -47 -14 -12 -775 -20 -794 -9 -6 4 -14 20 -18 35 -6 29 -35 41 -35 15 0 -10 -30 -13 -140 -13 -120 0 -140 2 -140 16 0 8 -4 13 -9 10 -5 -4 -12 0 -14 6 -3 7 -6 4 -6 -7 -1 -11 -8 -31 -17 -44 l-16 -23 -502 1 c-275 0 -602 -1 -726 -2 -239 -3 -261 0 -316 46 -59 48 -166 118 -162 105 3 -7 20 -23 39 -35 19 -12 44 -32 55 -44 13 -13 27 -18 34 -14 8 5 11 3 8 -6 -3 -8 -11 -13 -19 -11 -37 9 -514 0 -526 -10 -10 -8 -13 -7 -13 6 0 9 -7 16 -15 16 -8 0 -15 5 -15 11 0 6 -5 9 -12 7 -6 -2 -24 9 -40 24 -16 15 -34 28 -41 28 -7 1 -28 14 -47 30 -19 17 -39 30 -45 30 -5 0 -16 9 -23 20 -7 11 -18 20 -25 20 -6 0 -23 9 -37 20 -14 11 -29 20 -35 20 -5 0 13 -16 40 -35z m2795 -215 c0 -5 -2 -10 -4 -10 -3 0 -8 5 -11 10 -3 6 -1 10 4 10 6 0 11 -4 11 -10z m860 6 c0 -3 -4 -8 -10 -11 -5 -3 -10 -1 -10 4 0 6 5 11 10 11 6 0 10 -2 10 -4z"/>
<path d="M2930 2855 c7 -8 17 -15 22 -15 6 0 5 7 -2 15 -7 8 -17 15 -22 15 -6 0 -5 -7 2 -15z"/>
<path d="M2970 2833 c0 -9 40 -36 45 -31 2 2 -8 11 -21 21 -13 10 -24 14 -24 10z"/>
</g>
</g>
  <g id="id14:id14" transform="matrix(1.25,0,0,1.25,0.0,0.0)"><g transform="translate(0.000000,431.200000) scale(0.040000,-0.040000)" fill="#a59367" stroke="none">
<path d="M7086 9183 c-6 -14 -5 -15 5 -6 7 7 10 15 7 18 -3 3 -9 -2 -12 -12z"/>
<path d="M2610 9145 c0 -8 -7 -15 -15 -15 -11 0 -14 -7 -9 -25 4 -18 1 -27 -10 -31 -9 -3 -16 -16 -16 -28 0 -12 -4 -26 -9 -31 -6 -6 -12 -23 -15 -40 -3 -16 -10 -45 -16 -64 -5 -19 -8 -37 -5 -40 2 -4 -3 -36 -10 -71 -13 -60 -20 -251 -8 -222 2 6 9 10 14 6 5 -3 9 0 9 6 0 7 48 10 154 9 l153 -1 7 -51 c3 -29 7 -70 8 -92 1 -22 5 50 9 160 6 195 10 229 29 279 5 13 6 27 2 31 -3 3 -1 10 6 14 7 4 14 19 15 32 1 13 8 34 15 47 9 15 9 22 2 22 -7 0 -10 6 -7 13 2 6 9 11 15 10 5 -1 13 4 16 12 3 8 1 15 -4 15 -6 0 -10 9 -10 20 0 11 5 20 10 20 6 0 10 -5 10 -12 0 -6 2 -9 5 -6 3 3 2 16 -3 28 -6 15 -11 19 -16 12 -9 -15 -306 -17 -306 -2 0 6 -4 10 -10 10 -5 0 -10 -7 -10 -15z"/>
<path d="M5328 9150 c-3 -10 -571 -16 -588 -5 -6 3 -10 1 -10 -6 0 -8 -5 -7 -17 2 -16 13 -17 12 -4 -4 8 -9 16 -15 18 -13 3 3 18 -9 35 -26 16 -16 27 -32 24 -35 -9 -9 14 -43 28 -43 9 0 12 -7 9 -20 -3 -11 0 -20 6 -20 6 0 10 -3 9 -7 -3 -15 25 -62 33 -57 5 3 9 -3 9 -12 0 -10 16 -52 36 -93 20 -42 41 -87 46 -101 6 -14 14 -33 19 -42 5 -10 9 -25 9 -33 0 -8 9 -20 20 -27 11 -7 20 -16 20 -21 0 -4 -4 -5 -10 -2 -5 3 -10 -1 -10 -9 0 -35 32 -13 49 34 24 64 42 104 86 191 24 48 41 89 38 93 -4 3 -1 6 5 6 7 0 12 7 12 14 0 8 11 27 25 42 13 14 22 30 19 35 -3 5 0 9 5 9 6 0 11 7 11 17 0 9 18 33 40 53 27 25 38 43 34 54 -3 9 -1 16 5 16 6 0 11 5 11 10 0 13 -17 13 -22 0z m-281 -532 c-3 -8 -6 -5 -6 6 -1 11 2 17 5 13 3 -3 4 -12 1 -19z"/>
<path d="M7107 9146 c-4 -10 -1 -16 9 -16 11 0 15 -6 11 -19 -3 -11 1 -22 8 -25 8 -3 11 -13 8 -27 -5 -17 -3 -20 7 -14 10 6 12 3 8 -13 -3 -11 1 -30 9 -42 8 -12 13 -24 10 -27 -3 -3 -1 -17 5 -32 6 -14 12 -42 14 -61 2 -19 8 -60 14 -90 6 -30 13 -85 17 -122 3 -43 11 -69 19 -72 8 -3 14 -1 14 4 0 16 297 13 303 -2 4 -10 6 -10 6 0 1 7 6 10 11 7 13 -8 13 63 0 140 -6 33 -13 80 -15 104 -3 24 -10 50 -16 57 -6 8 -9 20 -6 28 3 7 -1 26 -9 42 -8 15 -14 35 -13 43 3 34 -2 51 -13 49 -9 -2 -12 8 -11 29 2 25 0 31 -12 27 -10 -4 -15 0 -15 14 0 12 -4 24 -10 27 -5 3 -10 1 -10 -4 0 -15 -312 -15 -327 0 -7 7 -12 6 -16 -5z"/>
<path d="M3910 9130 c23 -6 23 -7 5 -13 -11 -4 -41 -5 -67 -2 -33 2 -47 0 -45 -8 1 -7 -9 -11 -25 -10 -16 1 -28 -2 -28 -8 0 -5 -9 -9 -20 -9 -11 0 -20 -4 -20 -10 0 -5 -9 -10 -21 -10 -13 0 -18 -4 -13 -12 5 -7 2 -9 -9 -5 -10 4 -21 -3 -31 -19 -9 -13 -25 -24 -35 -24 -24 0 -114 -96 -105 -112 4 -6 3 -8 -4 -4 -12 7 -52 -62 -71 -124 -7 -25 -17 -55 -22 -68 -5 -13 -9 -49 -8 -80 0 -55 1 -56 16 -34 15 22 17 22 283 22 205 0 270 3 273 13 4 8 6 7 7 -3 1 -18 58 -65 67 -56 4 4 -3 13 -15 22 -53 37 -71 149 -32 204 11 15 17 29 15 32 -3 2 16 17 42 34 99 62 229 18 273 -94 10 -26 10 -41 1 -73 -7 -22 -9 -50 -6 -62 4 -12 3 -17 -2 -11 -5 8 -22 0 -52 -27 -24 -22 -41 -42 -38 -46 4 -3 18 6 32 21 13 14 36 31 50 36 34 13 235 13 235 0 0 -5 7 -7 15 -4 8 4 15 17 15 31 0 31 -18 113 -31 135 -5 10 -9 24 -9 32 0 7 -7 19 -15 26 -8 7 -13 16 -10 20 3 4 -6 19 -20 34 -13 14 -22 26 -19 26 16 0 -76 95 -104 107 -18 7 -35 20 -39 28 -3 8 -11 15 -19 15 -8 0 -14 5 -14 10 0 6 -8 10 -17 8 -11 -2 -17 2 -15 10 1 9 -6 12 -20 10 -15 -2 -22 2 -20 11 2 9 -4 12 -18 8 -12 -3 -23 0 -26 7 -3 9 -23 12 -57 11 -29 -1 -61 1 -72 4 -17 4 -15 6 10 11 17 4 -15 7 -70 6 -55 0 -89 -3 -75 -6z m640 -516 c0 -8 -4 -12 -10 -9 -5 3 -10 10 -10 16 0 5 5 9 10 9 6 0 10 -7 10 -16z"/>
<path d="M6030 9131 c33 -6 34 -7 10 -13 -14 -4 -51 -6 -82 -4 -32 2 -55 0 -53 -4 7 -12 -20 -19 -46 -13 -15 4 -20 3 -15 -5 7 -12 -4 -16 -38 -12 -12 1 -16 -2 -10 -11 5 -9 2 -10 -9 -6 -11 4 -17 1 -17 -7 0 -8 -17 -22 -37 -31 -42 -20 -133 -109 -133 -131 0 -8 -4 -14 -10 -14 -19 0 -57 -89 -85 -200 -17 -64 -20 -224 -5 -200 5 8 10 47 11 85 0 39 4 62 7 52 7 -16 31 -17 301 -20 l293 -2 29 -34 c16 -19 31 -32 34 -30 3 3 -15 26 -39 52 -35 36 -46 42 -49 29 -2 -9 -2 19 0 62 3 93 27 138 94 175 46 26 127 33 147 13 8 -7 17 -10 21 -8 4 3 24 -20 44 -51 30 -45 37 -65 37 -105 0 -58 -10 -80 -58 -130 -20 -21 -31 -38 -24 -38 6 0 16 8 21 18 5 10 21 24 35 32 14 7 26 20 27 29 0 11 2 12 6 4 3 -9 33 -13 101 -13 75 0 99 -4 114 -17 17 -15 18 -13 18 55 0 39 -4 74 -10 77 -5 3 -10 15 -10 26 0 26 -47 119 -61 119 -5 0 -8 4 -4 9 7 12 -114 143 -126 135 -5 -3 -19 4 -31 15 -12 12 -29 20 -37 19 -9 -2 -15 3 -14 9 2 8 -6 12 -20 10 -13 -1 -21 3 -19 11 1 6 -5 12 -13 12 -8 0 -15 5 -15 11 0 6 -7 9 -15 5 -19 -7 -47 3 -40 14 3 5 -15 7 -40 5 -58 -5 -93 6 -55 16 14 4 -18 7 -70 7 -59 -1 -82 -3 -60 -7z"/>
<path d="M7230 8535 c0 -22 4 -34 10 -30 6 3 10 17 10 30 0 13 -4 27 -10 30 -6 4 -10 -8 -10 -30z"/>
<path d="M4055 8540 c3 -5 10 -10 16 -10 5 0 9 5 9 10 0 6 -7 10 -16 10 -8 0 -12 -4 -9 -10z"/>
<path d="M7578 8538 c-3 -7 -2 -35 2 -63 l7 -50 2 63 c1 60 -2 75 -11 50z"/>
<path d="M6195 8520 c3 -5 12 -10 20 -10 8 0 17 5 20 10 4 6 -5 10 -20 10 -15 0 -24 -4 -20 -10z"/>
<path d="M4555 8511 c-3 -5 -1 -12 5 -16 5 -3 10 1 10 9 0 18 -6 21 -15 7z"/>
<path d="M2493 8440 c0 -36 2 -50 4 -32 2 17 2 47 0 65 -2 17 -4 3 -4 -33z"/>
<path d="M3392 8470 c0 -19 2 -27 5 -17 2 9 2 25 0 35 -3 9 -5 1 -5 -18z"/>
<path d="M6661 8444 c0 -11 3 -14 6 -6 3 7 2 16 -1 19 -3 4 -6 -2 -5 -13z"/>
<path d="M7212 8325 c0 -16 2 -22 5 -12 2 9 2 23 0 30 -3 6 -5 -1 -5 -18z"/>
<path d="M2288 2603 c7 -3 16 -2 19 1 4 3 -2 6 -13 5 -11 0 -14 -3 -6 -6z"/>
<path d="M2368 2603 c7 -3 16 -2 19 1 4 3 -2 6 -13 5 -11 0 -14 -3 -6 -6z"/>
<path d="M1451 2369 l-1 -117 63 -4 c66 -5 87 -2 87 14 0 5 -17 9 -37 8 -21 -1 -52 -2 -68 -1 l-30 1 2 80 c1 44 -2 92 -7 107 -6 19 -9 -10 -9 -88z"/>
<path d="M3333 2303 c-20 -7 -15 -23 7 -23 11 0 20 4 20 9 0 13 -12 19 -27 14z"/>
<path d="M3387 2304 c-11 -12 3 -24 29 -24 16 0 24 5 22 13 -5 13 -40 22 -51 11z"/>
<path d="M3475 2299 c-10 -15 1 -23 20 -15 9 3 13 10 10 16 -8 13 -22 13 -30 -1z"/>
<path d="M3535 2300 c-4 -6 7 -10 25 -10 18 0 29 4 25 10 -3 6 -15 10 -25 10 -10 0 -22 -4 -25 -10z"/>
<path d="M3600 2300 c0 -5 14 -10 30 -10 17 0 30 5 30 10 0 6 -13 10 -30 10 -16 0 -30 -4 -30 -10z"/>
<path d="M3692 2303 c-21 -8 -2 -23 23 -17 12 3 26 1 29 -5 4 -6 12 -11 18 -11 6 0 -1 9 -15 20 -26 20 -33 22 -55 13z"/>
<path d="M9935 2300 c-3 -5 -1 -10 4 -10 6 0 11 5 11 10 0 6 -2 10 -4 10 -3 0 -8 -4 -11 -10z"/>
<path d="M3177 2294 c-4 -4 -167 -8 -362 -8 -195 -1 -355 -5 -355 -9 0 -5 132 -8 293 -7 160 1 342 2 403 2 61 0 118 4 125 9 10 6 3 9 -21 9 -19 0 -44 3 -55 6 -11 3 -24 2 -28 -2z"/>
<path d="M2177 2284 c-13 -13 -7 -24 14 -24 11 0 19 5 17 12 -5 14 -22 21 -31 12z"/>
<path d="M2240 2280 c-12 -8 -12 -10 3 -16 22 -8 50 3 42 16 -8 12 -25 13 -45 0z"/>
<path d="M2315 2279 c-11 -16 1 -22 30 -15 14 4 23 11 20 16 -8 13 -42 13 -50 -1z"/>
<path d="M2397 2284 c-14 -14 -7 -25 13 -22 12 2 21 8 21 13 0 12 -24 18 -34 9z"/>
<path d="M2118 2275 c-2 -3 -116 -5 -251 -5 -135 0 -249 -5 -252 -10 -3 -5 -2 -10 2 -12 20 -8 523 8 524 17 1 11 -15 18 -23 10z"/>
<path d="M3040 2181 c-14 -5 -50 -14 -80 -21 -30 -7 -60 -19 -68 -26 -7 -8 -22 -14 -33 -14 -10 0 -19 -4 -19 -9 0 -5 -10 -11 -23 -15 -33 -8 -185 -160 -179 -179 1 -5 -6 -17 -18 -27 -11 -9 -20 -25 -20 -34 0 -9 -5 -16 -11 -16 -5 0 -9 -8 -7 -17 1 -10 -2 -25 -7 -33 -6 -8 -10 -32 -10 -52 l0 -38 122 0 c118 0 122 1 125 23 2 12 9 21 17 19 8 -2 11 3 8 12 -7 18 93 118 121 122 9 2 18 8 20 13 2 6 12 11 23 11 10 0 19 5 19 11 0 5 8 9 18 8 31 -3 43 1 37 11 -4 6 28 10 89 10 57 0 96 -4 96 -10 0 -5 14 -10 30 -10 17 0 30 -4 30 -10 0 -5 7 -10 15 -10 8 0 26 -10 41 -22 14 -13 31 -23 37 -23 6 0 16 -10 23 -22 6 -13 14 -20 17 -16 4 3 7 -1 7 -10 0 -10 5 -16 12 -15 7 2 12 -3 13 -10 0 -7 6 -16 13 -21 7 -4 10 -15 6 -24 -5 -13 -2 -16 10 -11 12 5 16 0 16 -20 0 -14 5 -26 10 -26 6 0 10 5 10 10 0 6 48 10 123 10 68 0 116 4 109 9 -8 5 -11 17 -7 33 4 17 2 27 -8 31 -10 4 -13 14 -9 33 3 19 1 25 -7 20 -7 -5 -11 0 -11 13 0 12 -4 21 -10 21 -5 0 -10 8 -10 18 0 10 -9 24 -20 32 -11 8 -20 22 -20 31 0 19 -139 151 -152 143 -4 -3 -8 -1 -8 5 0 14 -110 63 -127 57 -8 -3 -11 -2 -8 4 3 5 -11 12 -32 15 -21 3 -54 10 -74 15 -43 12 -203 12 -239 1z"/>
<path d="M5758 2185 c-3 -3 -33 -10 -68 -16 -34 -5 -90 -23 -124 -38 -75 -35 -174 -115 -195 -158 -9 -18 -22 -33 -29 -33 -7 0 -11 -4 -8 -9 3 -5 -1 -11 -9 -15 -8 -3 -12 -12 -9 -21 4 -10 2 -15 -7 -13 -10 2 -13 -5 -11 -21 2 -15 0 -21 -7 -17 -7 5 -11 -3 -11 -18 0 -14 -5 -26 -11 -26 -6 0 -8 -7 -5 -16 3 -8 3 -27 0 -41 -5 -19 -9 -22 -15 -11 -6 8 -7 -5 -3 -32 8 -55 11 -59 19 -27 7 25 9 26 106 29 54 2 99 0 99 -4 0 -5 5 -8 10 -8 6 0 10 9 10 20 0 11 7 20 15 20 10 0 15 7 13 18 -2 9 3 16 10 14 6 -1 12 6 12 16 0 20 59 82 79 82 7 0 9 5 5 12 -5 8 -2 9 10 5 10 -4 19 -1 23 9 3 8 12 13 20 10 7 -3 16 1 19 9 4 9 19 15 36 15 17 0 27 4 23 10 -4 6 28 10 90 10 62 0 94 -4 90 -10 -4 -6 8 -10 29 -10 20 0 36 -4 36 -10 0 -5 9 -10 19 -10 10 0 22 -7 25 -16 3 -8 11 -12 16 -9 6 4 22 -5 34 -20 13 -15 29 -26 35 -24 20 7 151 142 151 156 0 7 5 13 10 13 6 0 10 6 10 13 0 13 -109 87 -128 87 -7 0 -12 5 -12 10 0 6 -7 10 -15 10 -9 0 -27 7 -40 16 -14 9 -34 14 -45 11 -11 -3 -18 -1 -15 3 3 5 -11 12 -32 15 -21 4 -54 11 -73 16 -38 10 -173 12 -182 4z"/>
<path d="M6840 2155 c-7 -8 -9 -15 -6 -15 4 0 0 -7 -9 -16 -9 -9 -14 -23 -11 -31 3 -8 -1 -21 -9 -30 -8 -8 -12 -19 -9 -25 4 -6 1 -14 -5 -18 -7 -4 -13 -13 -15 -21 -1 -8 -8 -25 -16 -39 -7 -14 -13 -27 -13 -30 1 -8 -8 -33 -25 -70 -16 -34 -18 -41 -21 -68 0 -7 -5 -11 -9 -8 -5 3 -7 -11 -6 -30 2 -19 -1 -34 -6 -34 -6 0 -10 -7 -10 -15 0 -8 5 -15 10 -15 6 0 10 3 10 8 0 11 173 2 187 -10 10 -8 13 -5 13 11 0 11 4 21 8 21 4 0 13 15 20 34 19 51 45 70 79 58 21 -7 27 -15 25 -32 -1 -13 1 -21 5 -17 7 8 43 -58 43 -80 0 -7 5 -13 10 -13 6 0 10 7 10 15 0 12 18 15 98 15 56 0 103 -5 109 -11 7 -7 12 -6 16 5 4 10 1 16 -9 16 -12 0 -15 6 -10 25 5 18 3 24 -6 23 -9 -2 -12 6 -10 25 1 15 -2 27 -8 27 -5 0 -10 9 -10 20 0 11 -4 20 -10 20 -5 0 -10 12 -10 26 0 16 -4 23 -12 18 -8 -5 -9 0 -5 15 3 14 0 24 -9 28 -8 3 -14 14 -14 24 0 10 -5 19 -11 19 -6 0 -8 9 -4 20 4 13 1 22 -10 26 -10 4 -13 13 -10 24 3 10 1 21 -5 25 -5 3 -10 15 -10 26 0 10 -4 19 -10 19 -5 0 -10 9 -10 19 0 27 -18 31 -155 31 -97 0 -125 -3 -135 -15z"/>
<path d="M1450 2133 c0 -15 -2 -158 -4 -318 -2 -159 0 -240 3 -180 6 98 11 121 15 75 1 -8 8 -14 15 -12 26 5 522 2 532 -3 5 -4 35 15 67 41 71 60 400 383 413 407 9 16 -2 17 -175 17 l-185 0 -51 -50 c-30 -30 -48 -55 -44 -61 4 -8 3 -9 -4 -5 -6 3 -15 -2 -21 -12 -5 -10 -37 -46 -70 -80 -34 -35 -61 -68 -61 -73 0 -6 -20 -31 -44 -57 -25 -26 -54 -58 -65 -70 -22 -26 -57 -26 -55 1 1 9 -3 17 -8 17 -6 0 -8 36 -3 98 3 53 7 140 8 192 l2 95 -132 3 -133 3 0 -28z"/>
<path d="M4035 2113 c3 -26 8 -147 12 -268 5 -169 8 -211 16 -182 l9 38 282 -6 c154 -3 356 -2 449 2 l167 8 0 -32 c0 -17 4 -34 9 -37 5 -3 12 93 16 222 3 125 10 238 14 252 4 14 6 30 4 35 -2 6 -55 9 -135 8 l-133 -1 3 -195 c2 -127 -1 -198 -8 -202 -5 -3 -10 -15 -10 -26 0 -19 -7 -19 -217 -17 -197 3 -218 5 -217 20 1 10 -4 14 -13 11 -12 -5 -14 2 -9 38 3 24 8 119 11 210 l6 167 -130 1 -130 2 4 -48z"/>
<path d="M8013 2144 c-7 -19 4 -378 13 -416 6 -27 7 -27 98 -30 l91 -3 6 -30 c5 -24 7 -20 8 22 0 28 5 54 10 57 5 3 12 39 16 78 4 40 12 79 17 86 8 8 50 12 149 12 l139 0 2 -42 c1 -24 2 -50 4 -58 1 -8 3 -55 4 -105 2 -86 2 -88 13 -50 l12 40 103 -3 c100 -3 102 -2 104 20 1 13 5 -15 8 -62 4 -47 6 46 6 205 l-1 290 -398 3 c-356 2 -398 1 -404 -14z"/>
<path d="M9047 2146 c3 -4 -3 -5 -13 -2 -18 5 -19 0 -14 -97 l5 -102 148 -3 c93 -2 146 -6 142 -12 -3 -6 0 -10 9 -10 12 0 14 -27 16 -167 0 -92 3 -169 5 -172 3 -2 5 33 5 78 0 56 3 80 11 76 6 -4 8 -14 5 -22 -5 -12 10 -14 99 -11 99 3 105 2 107 -17 3 -40 3 -44 11 -51 4 -4 7 37 8 92 0 81 13 210 18 181 0 -4 7 -2 15 5 8 7 12 16 9 21 -2 4 68 7 156 7 l161 0 0 110 c0 67 -4 110 -10 110 -5 0 -10 -5 -10 -11 0 -7 -7 -8 -17 -4 -25 11 -872 12 -866 1z"/>
<path d="M8001 1714 c0 -11 3 -14 6 -6 3 7 2 16 -1 19 -3 4 -6 -2 -5 -13z"/>
<path d="M2541 1684 c0 -11 3 -14 6 -6 3 7 2 16 -1 19 -3 4 -6 -2 -5 -13z"/>
<path d="M2782 1655 c0 -16 2 -22 5 -12 2 9 2 23 0 30 -3 6 -5 -1 -5 -18z"/>
<path d="M5492 1660 c0 -14 2 -19 5 -12 2 6 2 18 0 25 -3 6 -5 1 -5 -13z"/>
<path d="M6650 1666 c0 -9 5 -16 10 -16 6 0 10 4 10 9 0 6 -4 13 -10 16 -5 3 -10 -1 -10 -9z"/>
<path d="M3791 1654 c0 -11 3 -14 6 -6 3 7 2 16 -1 19 -3 4 -6 -2 -5 -13z"/>
<path d="M8011 1654 c0 -11 3 -14 6 -6 3 7 2 16 -1 19 -3 4 -6 -2 -5 -13z"/>
<path d="M2011 1644 c0 -11 3 -14 6 -6 3 7 2 16 -1 19 -3 4 -6 -2 -5 -13z"/>
<path d="M7090 1644 c0 -8 5 -12 10 -9 6 4 8 11 5 16 -9 14 -15 11 -15 -7z"/>
</g>
</g>
  <g id="id15:id15" transform="matrix(1.25,0,0,1.25,0.0,0.0)"><g transform="translate(0.000000,431.200000) scale(0.040000,-0.040000)" fill="#9a8961" stroke="none">
<path d="M2487 10744 c-11 -11 6 -89 45 -209 28 -88 112 -251 163 -320 78 -103 216 -254 282 -306 35 -28 63 -58 63 -68 0 -9 -43 -61 -95 -115 -52 -54 -122 -138 -155 -187 -71 -103 -180 -313 -180 -346 0 -13 -4 -23 -10 -23 -5 0 -10 -9 -10 -20 0 -11 5 -20 10 -20 6 0 10 7 10 15 0 8 5 15 10 15 6 0 10 -4 10 -10 0 -15 293 -13 308 2 9 9 12 8 12 -5 0 -9 -4 -17 -10 -17 -5 0 -10 -9 -10 -20 0 -11 5 -20 10 -20 6 0 10 7 10 16 0 8 7 22 15 30 8 9 18 27 22 42 3 15 9 29 12 32 4 3 26 36 49 73 83 135 276 346 318 348 30 2 58 -2 69 -11 12 -9 128 -52 230 -84 99 -32 196 -58 380 -101 279 -65 496 -144 573 -209 45 -38 117 -110 139 -141 12 -16 24 -27 28 -23 3 3 -7 20 -24 37 -29 30 -43 59 -21 46 5 -3 139 -6 297 -5 211 0 289 4 295 12 4 7 10 9 14 6 3 -4 -1 -14 -10 -23 -17 -17 -20 -25 -10 -25 3 0 37 31 77 68 40 38 102 85 139 105 69 39 239 99 343 122 33 7 103 23 155 35 52 12 111 26 130 30 95 22 428 132 478 159 40 21 63 12 134 -56 85 -82 171 -186 226 -273 23 -36 46 -70 52 -77 5 -7 10 -19 10 -28 0 -18 16 -20 23 -2 3 6 3 -3 0 -20 -3 -21 -1 -33 6 -33 6 0 11 5 11 12 0 9 3 9 12 0 16 -16 328 -17 328 -1 0 5 5 7 10 4 6 -3 10 -15 10 -26 0 -10 5 -19 10 -19 6 0 10 11 10 25 0 14 -4 25 -10 25 -5 0 -10 7 -10 15 0 39 -148 315 -213 399 -50 65 -177 209 -203 231 -34 29 -30 49 18 87 148 117 325 331 399 481 54 110 131 358 116 373 -3 3 -25 -5 -49 -19 -212 -127 -533 -258 -770 -316 -86 -21 -89 -21 -1718 -21 -1587 0 -1635 1 -1729 20 -119 24 -238 63 -417 136 -141 57 -339 152 -385 185 -14 10 -29 16 -32 13z m4013 -712 c36 -6 46 -11 48 -29 3 -19 -6 -27 -50 -47 -74 -34 -464 -150 -628 -186 -52 -12 -106 -25 -120 -29 -14 -5 -45 -14 -70 -21 -239 -67 -416 -164 -557 -306 -46 -46 -85 -84 -88 -84 -3 0 -41 35 -85 79 -186 183 -320 247 -740 355 -96 24 -211 54 -255 67 -44 12 -102 28 -130 35 -97 27 -260 87 -277 102 -24 20 -23 51 2 60 26 10 2889 13 2950 4z"/>
<path d="M3955 9140 c-4 -6 5 -10 19 -10 14 0 26 5 26 10 0 6 -9 10 -19 10 -11 0 -23 -4 -26 -10z"/>
<path d="M3830 9121 c0 -12 73 -12 91 0 9 6 -5 9 -38 9 -29 0 -53 -4 -53 -9z"/>
<path d="M4032 9125 c11 -11 108 -16 108 -6 0 7 -23 11 -57 11 -31 0 -54 -2 -51 -5z"/>
<path d="M5930 9120 c0 -12 85 -11 115 1 13 5 -4 8 -47 8 -40 1 -68 -3 -68 -9z"/>
<path d="M6143 9124 c12 -12 85 -15 92 -4 4 6 -12 10 -46 10 -29 0 -49 -3 -46 -6z"/>
<path d="M7110 9115 c0 -8 5 -15 10 -15 6 0 10 7 10 15 0 8 -4 15 -10 15 -5 0 -10 -7 -10 -15z"/>
<path d="M2570 9089 c0 -11 5 -17 10 -14 6 3 10 13 10 21 0 8 -4 14 -10 14 -5 0 -10 -9 -10 -21z"/>
<path d="M3770 9100 c0 -5 6 -10 14 -10 8 0 18 5 21 10 3 6 -3 10 -14 10 -12 0 -21 -4 -21 -10z"/>
<path d="M4175 9100 c4 -6 11 -8 16 -5 14 9 11 15 -7 15 -8 0 -12 -5 -9 -10z"/>
<path d="M5867 9099 c8 -8 16 -8 30 0 16 9 14 10 -11 11 -22 0 -27 -3 -19 -11z"/>
<path d="M6260 9100 c19 -13 30 -13 30 0 0 6 -10 10 -22 10 -19 0 -20 -2 -8 -10z"/>
<path d="M7493 9084 c-3 -8 -1 -20 6 -27 8 -8 11 -4 11 16 0 30 -7 35 -17 11z"/>
<path d="M3728 9083 c7 -3 16 -2 19 1 4 3 -2 6 -13 5 -11 0 -14 -3 -6 -6z"/>
<path d="M4215 9080 c4 -6 11 -8 16 -5 14 9 11 15 -7 15 -8 0 -12 -5 -9 -10z"/>
<path d="M5815 9080 c3 -5 12 -7 20 -3 21 7 19 13 -6 13 -11 0 -18 -4 -14 -10z"/>
<path d="M7130 9074 c0 -8 5 -12 10 -9 6 4 8 11 5 16 -9 14 -15 11 -15 -7z"/>
<path d="M6336 9072 c-3 -6 -1 -14 5 -17 15 -10 25 3 12 16 -7 7 -13 7 -17 1z"/>
<path d="M2916 9061 c-4 -7 -5 -15 -2 -18 9 -9 19 4 14 18 -4 11 -6 11 -12 0z"/>
<path d="M3688 9063 c7 -3 16 -2 19 1 4 3 -2 6 -13 5 -11 0 -14 -3 -6 -6z"/>
<path d="M4255 9060 c4 -6 11 -8 16 -5 14 9 11 15 -7 15 -8 0 -12 -5 -9 -10z"/>
<path d="M5270 9045 c-7 -9 -11 -17 -9 -20 3 -2 10 5 17 15 14 24 10 26 -8 5z"/>
<path d="M5739 9041 c-13 -11 -19 -20 -14 -20 14 0 50 28 43 34 -3 3 -16 -3 -29 -14z"/>
<path d="M6375 9040 c4 -6 11 -8 16 -5 14 9 11 15 -7 15 -8 0 -12 -5 -9 -10z"/>
<path d="M7151 9034 c0 -11 3 -14 6 -6 3 7 2 16 -1 19 -3 4 -6 -2 -5 -13z"/>
<path d="M3610 9015 c-7 -8 -8 -15 -2 -15 5 0 15 7 22 15 7 8 8 15 2 15 -5 0 -15 -7 -22 -15z"/>
<path d="M4330 9015 c7 -8 17 -15 22 -15 6 0 5 7 -2 15 -7 8 -17 15 -22 15 -6 0 -5 -7 2 -15z"/>
<path d="M4810 9009 c0 -5 5 -7 10 -4 6 3 10 8 10 11 0 2 -4 4 -10 4 -5 0 -10 -5 -10 -11z"/>
<path d="M7522 9000 c0 -14 2 -19 5 -12 2 6 2 18 0 25 -3 6 -5 1 -5 -13z"/>
<path d="M7541 8914 c0 -11 3 -14 6 -6 3 7 2 16 -1 19 -3 4 -6 -2 -5 -13z"/>
<path d="M7191 8884 c0 -11 3 -14 6 -6 3 7 2 16 -1 19 -3 4 -6 -2 -5 -13z"/>
<path d="M9012 2038 l-2 -108 158 2 157 2 -150 6 -150 5 -6 100 -5 100 -2 -107z"/>
<path d="M4032 1578 l-2 -558 128 3 127 2 5 230 5 230 209 3 c145 2 213 -1 222 -9 11 -9 14 -50 14 -189 0 -97 3 -198 6 -223 l7 -46 126 2 126 2 1 540 c0 328 -2 483 -6 395 -4 -80 -8 -187 -9 -238 -1 -59 -5 -91 -11 -87 -5 3 -10 21 -10 38 l0 32 -167 -8 c-93 -4 -295 -5 -449 -2 l-282 6 -10 -38 c-9 -34 -10 -29 -12 52 -11 410 -17 370 -18 -137z"/>
<path d="M1995 2019 c-4 -6 -5 -12 -2 -15 2 -3 7 2 10 11 7 17 1 20 -8 4z"/>
<path d="M4280 1885 c-4 -114 -2 -143 10 -157 13 -16 37 -18 227 -18 164 0 213 3 213 13 0 9 -45 11 -197 9 -109 -2 -208 0 -220 3 -22 5 -23 10 -25 148 l-3 142 -5 -140z"/>
<path d="M2667 1972 c-10 -10 -17 -22 -17 -27 0 -4 9 2 20 15 11 13 20 25 20 27 0 7 -8 2 -23 -15z"/>
<path d="M1706 1948 c-10 -38 -7 -178 4 -178 6 0 10 40 10 100 0 55 -2 100 -4 100 -2 0 -6 -10 -10 -22z"/>
<path d="M7201 1954 c0 -11 3 -14 6 -6 3 7 2 16 -1 19 -3 4 -6 -2 -5 -13z"/>
<path d="M5345 1950 c-3 -5 -1 -10 4 -10 6 0 11 5 11 10 0 6 -2 10 -4 10 -3 0 -8 -4 -11 -10z"/>
<path d="M3680 1941 c0 -7 7 -19 15 -27 19 -20 19 -5 0 20 -9 11 -15 14 -15 7z"/>
<path d="M3118 1933 c29 -2 74 -2 100 0 26 2 2 3 -53 3 -55 0 -76 -1 -47 -3z"/>
<path d="M5798 1933 c29 -2 74 -2 100 0 26 2 2 3 -53 3 -55 0 -76 -1 -47 -3z"/>
<path d="M9708 1933 c45 -2 119 -2 165 0 45 1 8 3 -83 3 -91 0 -128 -2 -82 -3z"/>
<path d="M2622 1908 c-7 -7 -12 -16 -12 -21 0 -5 7 -1 16 8 9 9 14 18 12 20 -2 3 -10 -1 -16 -7z"/>
<path d="M3028 1913 c7 -3 16 -2 19 1 4 3 -2 6 -13 5 -11 0 -14 -3 -6 -6z"/>
<path d="M3283 1913 c9 -2 23 -2 30 0 6 3 -1 5 -18 5 -16 0 -22 -2 -12 -5z"/>
<path d="M5708 1913 c6 -2 18 -2 25 0 6 3 1 5 -13 5 -14 0 -19 -2 -12 -5z"/>
<path d="M5950 1916 c0 -2 11 -6 25 -8 14 -3 25 -1 25 3 0 5 -11 9 -25 9 -14 0 -25 -2 -25 -4z"/>
<path d="M7221 1904 c0 -11 3 -14 6 -6 3 7 2 16 -1 19 -3 4 -6 -2 -5 -13z"/>
<path d="M8272 1908 c-5 -7 -13 -46 -17 -86 -4 -39 -11 -75 -16 -78 -5 -3 -10 -29 -10 -57 -1 -42 -3 -46 -8 -22 l-6 30 -91 3 -92 3 -6 31 c-3 17 -7 47 -8 67 -1 21 -4 8 -9 -34 -10 -90 -34 -214 -49 -250 -4 -11 -14 -36 -21 -55 -35 -97 -112 -174 -195 -194 -51 -13 -54 -20 -54 -144 l0 -115 43 7 c152 22 214 51 308 145 91 91 126 158 178 336 25 85 51 264 51 353 0 38 4 54 18 61 9 6 12 11 6 11 -6 0 -16 -6 -22 -12z m-255 -260 c-3 -8 -6 -5 -6 6 -1 11 2 17 5 13 3 -3 4 -12 1 -19z"/>
<path d="M8530 1916 c0 -2 7 -6 15 -10 8 -3 15 -1 15 4 0 6 -7 10 -15 10 -8 0 -15 -2 -15 -4z"/>
<path d="M9598 1860 c-4 -30 -8 -95 -8 -144 0 -49 -3 -86 -7 -82 -8 7 -8 11 -11 51 -2 19 -8 20 -107 17 -89 -3 -104 -1 -99 11 3 8 1 18 -4 21 -20 12 -32 -672 -12 -703 6 -11 35 -13 129 -9 67 3 124 7 126 10 3 3 4 202 3 444 -2 246 -6 415 -10 384z"/>
<path d="M3338 1893 c7 -3 16 -2 19 1 4 3 -2 6 -13 5 -11 0 -14 -3 -6 -6z"/>
<path d="M6018 1893 c7 -3 16 -2 19 1 4 3 -2 6 -13 5 -11 0 -14 -3 -6 -6z"/>
<path d="M6169 1863 l-34 -38 38 34 c34 33 42 41 34 41 -2 0 -19 -17 -38 -37z"/>
<path d="M3720 1875 c0 -8 4 -15 10 -15 5 0 7 7 4 15 -4 8 -8 15 -10 15 -2 0 -4 -7 -4 -15z"/>
<path d="M1815 1814 c-50 -54 -64 -64 -83 -59 -17 4 -23 2 -20 -7 8 -23 38 -21 59 4 11 12 41 45 66 71 25 26 44 50 42 52 -3 2 -31 -26 -64 -61z"/>
<path d="M2887 1823 c-31 -30 -54 -59 -51 -64 3 -5 18 8 34 29 15 21 41 48 56 60 16 11 27 23 24 25 -3 3 -31 -19 -63 -50z"/>
<path d="M6070 1865 c7 -8 17 -15 22 -15 5 0 3 7 -6 15 -8 8 -18 15 -22 15 -3 0 -1 -7 6 -15z"/>
<path d="M7241 1864 c0 -11 3 -14 6 -6 3 7 2 16 -1 19 -3 4 -6 -2 -5 -13z"/>
<path d="M5291 1854 c0 -11 3 -14 6 -6 3 7 2 16 -1 19 -3 4 -6 -2 -5 -13z"/>
<path d="M3410 1852 c0 -5 7 -15 15 -22 8 -7 15 -8 15 -2 0 5 -7 15 -15 22 -8 7 -15 8 -15 2z"/>
<path d="M5570 1825 c-18 -19 -32 -36 -29 -37 2 -2 20 14 40 34 21 21 34 38 30 38 -4 0 -22 -16 -41 -35z"/>
<path d="M3741 1834 c0 -11 3 -14 6 -6 3 7 2 16 -1 19 -3 4 -6 -2 -5 -13z"/>
<path d="M5267 1820 c-3 -11 -1 -20 4 -20 5 0 9 9 9 20 0 11 -2 20 -4 20 -2 0 -6 -9 -9 -20z"/>
<path d="M8561 1824 c0 -11 3 -14 6 -6 3 7 2 16 -1 19 -3 4 -6 -2 -5 -13z"/>
<path d="M2570 1804 c0 -8 5 -12 10 -9 6 4 8 11 5 16 -9 14 -15 11 -15 -7z"/>
<path d="M6690 1806 c0 -9 -8 -30 -18 -48 -10 -18 -40 -82 -66 -143 -52 -118 -97 -215 -181 -390 -52 -110 -80 -183 -73 -190 2 -2 66 -5 142 -7 l139 -3 31 70 c17 39 41 86 53 105 l22 35 238 -3 c131 -2 245 -5 254 -8 9 -2 22 -23 29 -47 8 -23 17 -46 22 -51 4 -6 8 -17 8 -26 0 -10 7 -30 15 -47 l15 -30 147 -6 c82 -3 151 -3 155 1 4 4 -6 34 -22 67 -51 106 -130 276 -130 280 0 3 -11 29 -25 60 -14 30 -36 81 -50 113 -14 31 -34 74 -45 95 -11 22 -20 45 -20 53 0 8 -4 14 -10 14 -5 0 -10 -5 -10 -12 0 -9 -3 -9 -12 0 -8 8 -47 12 -110 12 -80 0 -98 -3 -98 -15 0 -8 -4 -15 -10 -15 -5 0 -10 6 -10 13 0 21 -35 88 -42 81 -8 -8 31 -110 84 -221 34 -70 29 -73 -136 -73 -80 0 -147 4 -150 8 -3 5 6 32 20 61 13 29 24 59 24 67 0 8 5 14 10 14 6 0 10 11 10 25 0 14 4 25 8 25 5 0 15 19 23 43 18 55 35 88 51 98 9 6 9 9 1 9 -15 0 -52 -47 -59 -77 -4 -12 -10 -23 -15 -23 -5 0 -9 -10 -9 -21 0 -16 -3 -19 -13 -11 -14 12 -187 21 -187 10 0 -5 -4 -8 -10 -8 -5 0 -10 7 -10 15 0 8 5 15 11 15 6 0 9 6 6 13 -2 6 1 27 9 44 8 20 9 35 3 38 -5 4 -9 -1 -9 -9z m-20 -147 c0 -5 -4 -9 -10 -9 -5 0 -10 7 -10 16 0 8 5 12 10 9 6 -3 10 -10 10 -16z m435 -8 c3 -5 1 -12 -5 -16 -5 -3 -10 1 -10 9 0 18 6 21 15 7z"/>
<path d="M7007 1789 c4 -13 9 -17 15 -11 11 11 3 32 -12 32 -4 0 -6 -9 -3 -21z"/>
<path d="M3470 1788 c1 -7 7 -24 14 -37 10 -17 15 -20 21 -11 5 8 1 16 -9 22 -9 5 -14 13 -11 18 3 5 1 11 -5 15 -5 3 -10 0 -10 -7z"/>
<path d="M3755 1791 c-3 -5 -1 -12 5 -16 5 -3 10 1 10 9 0 18 -6 21 -15 7z"/>
<path d="M8564 1415 l1 -390 125 0 125 0 3 195 c3 190 -8 548 -16 502 -3 -23 -6 -23 -107 -20 l-104 3 -8 -40 c-7 -35 -9 -29 -14 50 -3 50 -5 -85 -5 -300z"/>
<path d="M7274 1779 c-3 -6 -1 -16 5 -22 8 -8 11 -5 11 11 0 24 -5 28 -16 11z"/>
<path d="M2075 1735 c-27 -24 -56 -42 -64 -39 -15 5 -509 7 -532 2 -7 -2 -14 4 -15 12 -10 112 -20 -170 -15 -448 l4 -243 131 3 131 3 5 230 c3 127 9 236 13 243 5 6 14 12 22 12 15 0 78 -58 116 -106 48 -62 287 -340 310 -360 22 -20 36 -22 179 -24 85 -2 161 -2 169 -1 19 2 -8 41 -85 121 -34 36 -81 88 -105 116 -24 28 -91 104 -149 168 -58 65 -118 137 -134 160 -17 22 -34 43 -38 44 -13 6 -9 24 10 41 34 33 106 111 102 111 -3 0 -27 -20 -55 -45z"/>
<path d="M5247 1761 c-2 -10 -1 -24 3 -31 6 -10 19 17 20 43 0 15 -18 6 -23 -12z"/>
<path d="M5515 1761 c-3 -5 -1 -12 5 -16 5 -3 10 1 10 9 0 18 -6 21 -15 7z"/>
<path d="M2550 1716 c0 -25 -4 -48 -10 -51 -25 -15 -3 -198 36 -295 42 -106 171 -237 294 -298 121 -61 150 -67 305 -67 122 1 148 4 205 24 175 64 309 180 375 323 33 73 61 241 46 275 -6 13 -11 35 -11 48 l0 25 -120 0 c-73 0 -120 -4 -120 -10 0 -5 -4 -10 -10 -10 -5 0 -10 12 -10 26 0 16 -5 24 -12 21 -13 -4 -12 -48 1 -57 15 -10 5 -136 -14 -189 -25 -68 -95 -147 -167 -186 -50 -28 -59 -30 -169 -30 -103 0 -121 3 -163 25 -74 37 -132 94 -165 162 -26 51 -31 73 -31 133 0 40 7 91 14 113 8 23 11 44 7 46 -12 8 -21 -4 -21 -26 0 -16 -10 -18 -124 -18 l-123 0 4 24 c3 13 0 27 -6 30 -7 5 -11 -8 -11 -38z m237 -73 c-3 -10 -5 -4 -5 12 0 17 2 24 5 18 2 -7 2 -21 0 -30z"/>
<path d="M3770 1725 c0 -8 5 -15 10 -15 6 0 10 7 10 15 0 8 -4 15 -10 15 -5 0 -10 -7 -10 -15z"/>
<path d="M7290 1725 c0 -8 5 -15 10 -15 6 0 10 7 10 15 0 8 -4 15 -10 15 -5 0 -10 -7 -10 -15z"/>
<path d="M5490 1710 c0 -11 -4 -20 -10 -20 -5 0 -10 3 -10 8 0 4 -44 6 -98 4 -96 -3 -99 -4 -109 -30 l-11 -27 -1 33 c-1 21 -5 31 -12 26 -6 -3 -9 -24 -7 -45 2 -21 -1 -40 -6 -42 -20 -7 19 -208 53 -279 46 -98 152 -201 261 -256 113 -57 144 -65 285 -69 151 -5 187 3 329 73 137 67 157 79 154 91 -4 17 -157 173 -169 173 -6 0 -23 -9 -39 -20 -44 -32 -110 -56 -183 -69 -164 -28 -322 50 -392 194 -25 52 -43 207 -26 229 17 23 20 46 6 46 -8 0 -15 -9 -15 -20z"/>
<path d="M4747 743 l-107 -4 2 -292 3 -292 198 -3 198 -2 -3 57 -3 58 -130 5 -130 5 -3 50 c-4 76 0 79 125 79 l108 1 3 53 3 54 -104 -3 c-127 -4 -139 2 -135 70 l3 46 132 3 131 3 7 49 c4 27 4 54 0 60 -6 10 -45 10 -298 3z"/>
<path d="M5275 740 l-50 -5 0 -290 0 -290 60 0 60 0 3 114 c1 64 8 121 14 128 13 16 199 18 229 3 17 -9 19 -22 19 -99 0 -49 3 -103 6 -120 l7 -32 61 3 61 3 3 295 2 296 -59 -1 -60 0 -10 -42 c-6 -23 -11 -70 -11 -105 0 -37 -5 -69 -12 -76 -16 -16 -220 -16 -236 0 -8 8 -12 47 -12 109 0 66 -4 99 -12 105 -7 5 -35 7 -63 4z"/>
<path d="M5867 744 c-12 -13 -7 -91 6 -102 7 -6 49 -12 92 -14 l80 -3 3 -237 2 -238 65 0 65 0 2 238 3 237 84 7 c51 4 87 12 93 20 4 7 7 31 6 53 l-3 40 -246 3 c-135 1 -248 -1 -252 -4z"/>
<path d="M6470 444 l0 -294 65 0 65 0 0 90 c0 50 1 90 3 91 1 0 48 3 105 5 116 4 156 18 201 69 38 43 67 135 52 163 -6 11 -11 28 -11 36 0 34 -46 87 -96 112 -48 24 -58 25 -217 24 l-167 -2 0 -294z m331 165 c25 -18 29 -27 29 -70 0 -45 -3 -51 -32 -69 -26 -16 -51 -20 -115 -20 l-83 0 0 83 c0 46 3 87 7 90 3 4 42 7 86 7 64 0 84 -4 108 -21z"/>
<path d="M4010 440 l0 -290 198 -2 197 -3 3 -57 3 -58 59 0 60 0 0 135 0 134 -57 3 -58 3 -3 213 -2 212 -60 0 -60 0 0 -199 c0 -110 -3 -206 -6 -215 -9 -23 -139 -23 -148 0 -3 9 -6 105 -6 215 l0 199 -60 0 -60 0 0 -290z"/>
</g>
</g>
</svg>
