<svg width="69" height="67" viewBox="0 0 69 67" fill="none" xmlns="http://www.w3.org/2000/svg">
<path d="M42.8791 50.68C56.874 50.68 68.2191 39.3349 68.2191 25.34C68.2191 11.3451 56.874 0 42.8791 0C28.8842 0 17.5391 11.3451 17.5391 25.34C17.5391 39.3349 28.8842 50.68 42.8791 50.68Z" fill="#998861"/>
<path d="M32.7496 65.3201C49.2409 65.3201 62.6096 51.9513 62.6096 35.4601C62.6096 18.9689 49.2409 5.6001 32.7496 5.6001C16.2584 5.6001 2.88965 18.9689 2.88965 35.4601C2.88965 51.9513 16.2584 65.3201 32.7496 65.3201Z" stroke="#222220" stroke-width="2" stroke-miterlimit="10"/>
<path d="M0 15.0601V55.8501L34.08 35.4601L0 15.0601Z" fill="#222220"/>
</svg>
