<svg width="67" height="67" viewBox="0 0 67 67" fill="none" xmlns="http://www.w3.org/2000/svg">
<path d="M40.9894 50.68C54.9843 50.68 66.3294 39.3349 66.3294 25.34C66.3294 11.3451 54.9843 0 40.9894 0C26.9945 0 15.6494 11.3451 15.6494 25.34C15.6494 39.3349 26.9945 50.68 40.9894 50.68Z" fill="#998861"/>
<path d="M40.27 61.54C50.3602 61.54 58.54 53.3602 58.54 43.27C58.54 33.1798 50.3602 25 40.27 25C30.1798 25 22 33.1798 22 43.27C22 53.3602 30.1798 61.54 40.27 61.54Z" fill="#222220"/>
<path d="M30.86 65.3201C47.3512 65.3201 60.72 51.9513 60.72 35.4601C60.72 18.9689 47.3512 5.6001 30.86 5.6001C14.3688 5.6001 1 18.9689 1 35.4601C1 51.9513 14.3688 65.3201 30.86 65.3201Z" stroke="#222220" stroke-width="2" stroke-miterlimit="10"/>
</svg>
